<svg width="50" height="50" viewBox="0 0 50 50" fill="none" xmlns="http://www.w3.org/2000/svg">
<circle cx="25" cy="25" r="25" fill="#00C0F2"/>
<path fill-rule="evenodd" clip-rule="evenodd" d="M43.9999 31.3371C44.0023 32.0409 43.7305 32.7171 43.2447 33.218C43.01 33.4654 42.729 33.6621 42.418 33.7964C42.107 33.9308 41.7727 34 41.4348 34C41.097 34 40.7627 33.9308 40.4517 33.7964C40.1407 33.6621 39.8597 33.4654 39.625 33.218L25.4984 18.4484L11.3561 33.218C11.1229 33.4651 10.8429 33.6616 10.5331 33.7959C10.2234 33.9302 9.89045 33.9995 9.55377 33.9995C9.21708 33.9995 8.88337 33.9302 8.57363 33.7959C8.2639 33.6616 7.98465 33.4651 7.75146 33.218C7.26975 32.7114 7 32.0341 7 31.3293C7 30.6244 7.26975 29.9471 7.75146 29.4405L23.6954 12.7823C23.9285 12.535 24.2086 12.3382 24.5183 12.2038C24.8281 12.0693 25.1617 12 25.4984 12C25.8352 12 26.1681 12.0693 26.4778 12.2038C26.7876 12.3382 27.0677 12.535 27.3007 12.7823L43.2447 29.4405C43.4871 29.6905 43.6793 29.9867 43.8088 30.3122C43.9384 30.6376 44.0031 30.986 43.9999 31.3371Z" fill="white"/>
</svg>
