<svg width="31" height="24" viewBox="0 0 31 24" fill="none" xmlns="http://www.w3.org/2000/svg">
<path fill-rule="evenodd" clip-rule="evenodd" d="M0 2C0 0.895432 0.89543 0 2 0H29C30.1046 0 31 0.895432 31 2C31 3.10457 30.1046 4 29 4H2C0.89543 4 0 3.10457 0 2ZM0 22C0 20.8954 0.89543 20 2 20H29C30.1046 20 31 20.8954 31 22C31 23.1046 30.1046 24 29 24H2C0.89543 24 0 23.1046 0 22ZM2 10C0.89543 10 0 10.8954 0 12C0 13.1046 0.89543 14 2 14H29C30.1046 14 31 13.1046 31 12C31 10.8954 30.1046 10 29 10H2Z" fill="#08618D"/>
</svg>
