<svg width="107" height="21" viewBox="0 0 107 21" fill="none" xmlns="http://www.w3.org/2000/svg">
<g clip-path="url(#clip0_3066_2856)">
<path d="M2.81209 2.78111H5.13206C7.24113 2.78111 8.22536 3.43257 8.22536 4.67036C8.22536 5.77785 7.31143 6.49446 5.41327 6.49446H2.81209V2.78111ZM0 15.159H5.69448C8.71748 15.159 11.6702 14.1818 11.6702 10.9896C11.6702 9.10032 10.2641 7.6671 8.22536 7.47166V7.40651C9.84231 6.95049 10.9671 5.843 10.9671 4.21433C10.9671 1.54332 8.50657 0.500977 6.11629 0.500977H0V15.159ZM2.81209 8.70945H5.48357C7.73325 8.70945 8.85808 9.23062 8.85808 10.7941C8.85808 12.7485 6.81932 12.944 5.41327 12.944H2.81209V8.70945Z" fill="#4A7E98"/>
<path d="M16.3804 0.174805H13.4277V15.1585H16.3804V0.174805Z" fill="#4A7E98"/>
<path d="M20.6688 10.2078C20.6688 8.6443 21.8639 7.21108 23.8324 7.21108C25.8009 7.21108 26.996 8.6443 26.996 10.2078C26.996 11.7713 25.8009 13.2046 23.8324 13.2046C21.8639 13.2046 20.6688 11.7713 20.6688 10.2078ZM17.9973 10.2078C17.9973 13.3349 20.5985 15.4195 23.8324 15.4195C27.0663 15.4195 29.6675 13.3349 29.6675 10.2078C29.6675 7.08078 27.0663 4.99609 23.8324 4.99609C20.5985 4.99609 17.9973 7.08078 17.9973 10.2078Z" fill="#4A7E98"/>
<path d="M33.5343 10.2078C33.5343 8.6443 34.7294 7.21108 36.6979 7.21108C38.6663 7.21108 39.8615 8.6443 39.8615 10.2078C39.8615 11.7713 38.6663 13.2046 36.6979 13.2046C34.7294 13.2046 33.5343 11.7713 33.5343 10.2078ZM30.8628 10.2078C30.8628 13.3349 33.464 15.4195 36.6979 15.4195C39.9318 15.4195 42.533 13.3349 42.533 10.2078C42.533 7.08078 39.9318 4.99609 36.6979 4.99609C33.464 4.99609 30.8628 7.08078 30.8628 10.2078Z" fill="#4A7E98"/>
<path d="M44.2202 5.25668H46.7511V6.8202H46.8214C47.3135 5.90815 48.2977 4.99609 50.1256 4.99609C51.8129 4.99609 52.9377 5.58241 53.5001 6.8202C54.2734 5.58241 55.3983 4.99609 57.0152 4.99609C59.8976 4.99609 60.8818 6.88534 60.8818 9.29577V15.159H58.2104V9.55635C58.2104 8.31857 57.7885 7.21108 56.2419 7.21108C54.5546 7.21108 53.9219 8.51401 53.9219 9.75179V15.159H51.2504V9.23062C51.2504 7.99284 50.688 7.21108 49.4226 7.21108C47.665 7.21108 46.962 8.38372 46.962 9.75179V15.159H44.2905V5.25668H44.2202Z" fill="#4A7E98"/>
<path d="M71.9191 10.2074C71.9191 11.7709 70.724 13.2041 68.7555 13.2041C66.787 13.2041 65.5919 11.7709 65.5919 10.2074C65.5919 8.64386 66.787 7.21064 68.7555 7.21064C70.724 7.21064 71.9191 8.64386 71.9191 10.2074ZM62.9907 15.1585H65.5216V13.6601H65.5919C66.3652 14.8328 67.7713 15.4191 69.3179 15.4191C72.6221 15.4191 74.5906 13.139 74.5906 10.2074C74.5906 7.27578 72.4815 4.99565 69.3882 4.99565C67.3495 4.99565 66.2949 5.84256 65.7325 6.49402H65.6622V0.174805H62.9907V15.1585Z" fill="#4A7E98"/>
<path d="M78.4574 9.23062C78.6683 7.7974 79.6525 6.88534 81.1992 6.88534C82.8864 6.88534 83.8706 7.7974 83.9409 9.23062H78.4574ZM86.6124 11.0547V10.4033C86.6124 6.95049 84.5737 4.99609 81.5507 4.99609C78.3168 4.99609 75.7156 7.08078 75.7156 10.2078C75.7156 13.3349 78.3168 15.4195 81.5507 15.4195C83.2379 15.4195 84.8549 14.8332 86.05 13.4651L84.1518 12.0971C83.4488 12.8788 82.6052 13.4651 81.2695 13.4651C79.7931 13.4651 78.5277 12.5531 78.3871 11.1199H86.6124V11.0547Z" fill="#4A7E98"/>
<path d="M88.3699 5.25668H91.0414V6.8202H91.1117C91.6741 5.71271 92.8692 4.99609 94.2753 4.99609C94.6268 4.99609 94.908 5.06124 95.2595 5.12639V7.53681C94.8377 7.40652 94.4159 7.34137 93.9941 7.34137C91.4632 7.34137 91.1117 9.29577 91.1117 9.88209V15.159H88.4402L88.3699 5.25668Z" fill="#4A7E98"/>
<path d="M101.235 7.21108C103.204 7.21108 104.399 8.38372 104.399 10.1427C104.399 11.7713 103.204 13.0743 101.235 13.0743C99.4074 13.0743 98.0716 11.7713 98.0716 10.2078C98.0716 8.44886 99.4074 7.21108 101.235 7.21108ZM104.399 5.25668V6.75505H104.329C103.555 5.58241 102.149 4.99609 100.603 4.99609C97.2983 4.99609 95.3298 7.27622 95.3298 10.2078C95.3298 13.0091 97.4389 15.2893 100.673 15.2893C102.009 15.2893 103.415 14.8332 104.188 13.856H104.258V14.5726C104.258 16.527 103.485 17.8951 100.884 17.8951C99.4074 17.8951 98.2825 17.3739 97.228 16.4619L95.611 18.4814C97.1577 19.7192 98.9152 20.1101 100.954 20.1101C105.102 20.1101 107 17.83 107 14.2469V5.25668H104.399Z" fill="#4A7E98"/>
</g>
<defs>
<clipPath id="clip0_3066_2856">
<rect width="107" height="20" fill="white" transform="translate(0 0.174805)"/>
</clipPath>
</defs>
</svg>
