<svg width="55" height="41" viewBox="0 0 55 41" fill="none" xmlns="http://www.w3.org/2000/svg">
<g clip-path="url(#clip0_3066_2850)">
<path fill-rule="evenodd" clip-rule="evenodd" d="M52.8954 28.087H54.9998V30.5968H51.7317C51.1084 30.5781 50.4938 30.4476 49.9182 30.2117C48.3966 29.5332 47.8139 27.8901 47.6864 26.0548V5.00774H51.1139V10.2925H54.382V12.7419H51.1139V26.3105C51.0899 26.5476 51.1193 26.787 51.2001 27.0116C51.2808 27.2362 51.4108 27.4406 51.5808 27.6102C51.7509 27.7798 51.9569 27.9104 52.1841 27.9928C52.4113 28.0752 52.6541 28.1074 52.8954 28.087ZM33.6972 26.1536V14.6132C33.6 8.10343 45.1253 8.07048 44.9308 14.7748V20.3183C44.9314 20.3983 44.916 20.4777 44.8855 20.5518C44.8549 20.6259 44.8098 20.6934 44.7527 20.7504C44.6956 20.8073 44.6277 20.8527 44.5528 20.8838C44.4779 20.9149 44.3975 20.9312 44.3162 20.9317H37.1288V26.3137C37.1614 28.8603 41.5638 28.8282 41.5638 26.3137V23.7356H44.9635V26.1536C45.1253 32.825 33.6 32.6634 33.6972 26.1536ZM41.4992 18.3842V14.6132C41.4992 12.0995 37.1288 12.0995 37.0642 14.6132V18.3842H41.4992ZM27.0605 14.2925C27.0605 11.9395 23.0456 12.003 22.981 14.3889V30.6007H18.0278V28.0909H19.614V12.8093H17.736V10.3269H22.5275V12.1638C23.0935 11.4498 23.8118 10.8667 24.6318 10.4556C25.1755 10.1663 25.7796 10.0043 26.3972 9.98198C27.0149 9.95967 27.6295 10.0777 28.1932 10.3269C29.7149 11.003 30.2976 12.6478 30.4251 14.4838V28.1199H32.594V30.5999H27.0941L27.0605 14.2925ZM13.4955 0.174805H15.9554V40.1748H13.4955V0.174805ZM-0.00500326 26.1544V14.6132C-0.10225 8.10343 11.423 8.07048 11.2285 14.7748V16.774H7.86156L7.82969 14.6132C7.82969 12.1317 3.49107 12.196 3.39382 14.7105V26.3137C3.4265 28.8603 7.82969 28.8282 7.82969 26.3137V23.7356H11.2285V26.1536C11.423 32.825 -0.10225 32.6634 -0.00500326 26.1536V26.1544Z" fill="#4A7E98"/>
</g>
<defs>
<clipPath id="clip0_3066_2850">
<rect width="55" height="40" fill="white" transform="translate(0 0.174805)"/>
</clipPath>
</defs>
</svg>
