<svg width="99" height="15" viewBox="0 0 99 15" fill="none" xmlns="http://www.w3.org/2000/svg">
<g clip-path="url(#clip0_3066_2852)">
<path fill-rule="evenodd" clip-rule="evenodd" d="M47.0439 3.96071C47.0439 5.85071 46.845 11.7108 46.845 11.7108C46.845 12.8456 47.2434 13.3496 48.3709 13.3496V13.8535H43.9254V13.3496C44.1621 13.3821 44.4036 13.362 44.6305 13.2909C44.8574 13.2197 45.0632 13.0996 45.2315 12.9401C45.3997 12.7806 45.5256 12.5862 45.599 12.3726C45.6724 12.1591 45.6912 11.9324 45.6539 11.7108L46.0523 2.13187C45.9692 1.81526 45.7717 1.53542 45.4933 1.34007C45.2149 1.14472 44.873 1.04591 44.5256 1.06047V0.618382H47.9097L51.4926 9.56658L55.1422 0.618382H58.1947V1.06047C58.0128 1.03542 57.8272 1.05087 57.6528 1.10558C57.4784 1.16029 57.3202 1.25274 57.191 1.37542C57.0618 1.49809 56.9652 1.64757 56.909 1.81175C56.8529 1.97593 56.8387 2.15021 56.8677 2.32049L57.2652 11.584C57.2652 12.97 57.5308 13.3481 58.7251 13.3481V13.852H53.618V13.3481C54.6134 13.3481 55.0778 13.0334 55.011 11.584C55.011 11.584 54.8122 5.09322 54.7454 3.95922L52.2909 10.3859C51.9224 11.292 51.612 12.2179 51.3614 13.1587L50.5654 13.2213C50.3667 12.5294 49.8355 11.2687 49.8355 11.2687C49.8355 11.2687 47.7785 5.78659 47.0486 3.95922L47.0439 3.96071ZM42.8639 13.9162C42.6024 13.8643 42.335 13.8432 42.0679 13.8535C41.5368 13.8535 40.6081 14.1063 39.4798 14.1063C35.167 14.1063 31.9825 11.6482 31.9825 7.11068C31.9825 3.26731 34.9682 0.305234 39.5465 0.305234C40.6584 0.304385 41.7609 0.497011 42.7978 0.873336C42.9966 0.683968 43.0634 0.557233 43.2622 0.368601H43.6606C43.5938 1.06197 43.3282 3.33068 43.3282 3.33068H42.9306C42.6651 2.00436 41.9352 1.12532 39.6126 1.12532C36.8257 1.12532 34.3043 3.20397 34.3043 7.04808C34.3043 11.3954 36.8924 13.2862 39.7454 13.2862C40.5319 13.2835 41.3008 13.068 41.9599 12.6656C42.619 12.2631 43.1402 11.6908 43.461 11.0174L43.9254 11.2068L42.8639 13.9162ZM30.3231 3.07869H29.8571C29.7911 1.88132 29.3928 1.50332 28.3973 1.50332H26.4786V11.3962C26.4786 13.0349 26.8101 13.3496 27.9384 13.3496V13.8535H22.9617V13.3496C24.09 13.3496 24.4215 13.0349 24.4215 11.3335V1.50184H22.4974C21.2402 1.50184 21.0375 1.81647 20.7059 3.07721H20.2416L20.5732 0.241102L20.9047 0.303749C21.0375 0.619118 21.3031 0.619102 22.0998 0.619102H28.5356C29.7299 0.619102 29.9954 0.619102 30.2641 0.241102H30.6625L30.3301 3.07721L30.3231 3.07869ZM16.2588 14.1682C15.5147 14.1864 14.7731 14.0798 14.069 13.8535C13.6701 13.7644 13.2893 13.6151 12.9415 13.4114C12.7654 13.5842 12.6095 13.7742 12.4764 13.9781L12.0788 13.852L12.4103 10.8907L12.8747 10.9533C13.1403 12.3401 14.1358 13.3481 16.1928 13.3481C16.5536 13.3413 16.9093 13.267 17.2391 13.1296C17.5688 12.9922 17.866 12.7945 18.1132 12.548C18.3604 12.3015 18.5527 12.0111 18.6786 11.694C18.8046 11.3769 18.8619 11.0394 18.8469 10.7013C18.8469 9.5673 18.3818 8.99993 16.7899 7.8652C16.3049 7.59974 15.8393 7.30439 15.396 6.98102C13.9362 6.09681 13.0075 5.09026 13.0075 3.45152C13.0075 1.56152 14.6662 0.300781 16.8575 0.300781C17.6639 0.28901 18.4612 0.462033 19.1801 0.804797L19.6444 0.300781L19.976 0.364149L19.6429 3.07869L19.1785 3.0146C19.1785 1.7546 18.3818 1.18797 17.0571 1.18797C15.7999 1.18797 14.8681 1.81797 14.8681 3.0146C14.8681 4.08671 15.7323 4.78301 16.7255 5.41006C17.2566 5.72469 17.6542 5.97669 18.0526 6.22943C20.3752 7.80406 20.9055 8.80838 20.9055 10.3241C20.9055 12.5346 19.1141 14.1682 16.2611 14.1682H16.2588ZM8.6947 3.07869H8.16358C8.16358 1.94322 7.6332 1.50332 6.57091 1.50332H3.58521V6.48141H5.50945C6.50495 6.48141 6.70371 5.97669 6.83649 5.15511H7.30085V8.68456H6.83572C6.70294 7.7392 6.50414 7.35826 5.44264 7.35826H3.58286V11.5811C3.58286 13.1557 3.98124 13.3451 5.04274 13.3451V13.8491H0V13.3451C1.25714 13.3451 1.45986 13.0305 1.45986 11.5811V2.32197C1.45986 1.43776 1.0615 1.06195 0 1.06195V0.619867H6.90094C8.09523 0.619867 8.36077 0.556471 8.55956 0.177734H9.02392L8.69235 3.07649L8.6947 3.07869ZM80.289 3.83469V11.3962C80.289 13.0349 80.6874 13.3496 81.7489 13.3496V13.8535H73.9192V13.3496C74.5163 13.3496 75.0475 13.1602 75.0475 12.7822C75.0305 12.398 74.9637 12.0172 74.8487 11.6482L74.2508 9.82005H69.872C69.5095 10.7657 69.2206 11.7347 69.0077 12.7195C69.0285 12.8224 69.0708 12.9204 69.1322 13.0079C69.1936 13.0954 69.2729 13.1705 69.3655 13.2291C69.458 13.2877 69.562 13.3285 69.6715 13.3491C69.7809 13.3698 69.8937 13.37 70.0032 13.3496V13.8535H66.3536V13.3496C67.0167 13.3496 67.5478 13.2862 68.0122 11.9635L71.3963 1.69194C71.3292 1.51021 71.204 1.35227 71.0379 1.23955C70.8717 1.12684 70.6726 1.06484 70.4676 1.06195V0.619867H73.4533L77.0362 11.3954C77.3685 12.5302 77.7001 13.0975 78.2304 13.3488C79.0271 13.0975 79.2259 12.8448 79.2259 11.3954V2.32197C78.6288 1.56597 78.5628 1.06195 77.4345 1.06195V0.619867H80.8186L86.3924 9.63067V2.76185C86.3924 1.37585 86.0601 1.06123 84.9326 1.06123V0.619102H92.3639V1.06123C92.2621 1.04305 92.1574 1.04539 92.0567 1.06812C91.956 1.09084 91.8617 1.13345 91.7799 1.19305C91.6981 1.25266 91.6308 1.32788 91.5825 1.41378C91.5341 1.49968 91.5059 1.59427 91.4995 1.69122C91.5326 2.03798 91.6222 2.37791 91.7651 2.69921L93.8866 7.04659L95.9436 2.82446C96.1913 2.4673 96.3291 2.05298 96.3419 1.62709C96.3419 1.24909 96.0764 1.06047 95.4777 1.06047V0.618382H99V1.06047C98.1357 1.06047 97.6061 1.81649 97.2085 2.69849L94.4877 7.99193V11.4551C94.4877 12.9678 94.886 13.3459 95.9475 13.3459V13.8498H90.9072V13.3459C91.9687 13.3459 92.367 12.9678 92.367 11.4551V8.49374L89.4473 2.63363C88.9169 1.49963 88.7174 1.2469 88.3858 1.05827C87.7227 1.30953 87.5215 1.75089 87.5215 2.75889V12.4631C87.5215 12.4631 87.5883 13.2191 87.6543 14.1026L86.79 14.1645L80.2874 3.831L80.289 3.83469ZM71.995 3.20394L70.1376 8.93808H73.9876L71.9966 3.20394H71.995ZM63.7678 8.93808H62.7723V11.6482C62.7723 13.0349 63.1698 13.3496 64.2981 13.3496V13.8535H59.191V13.3496C60.2533 13.3496 60.6509 12.9715 60.6509 11.5855V2.69997C60.6509 1.31323 60.2533 1.06195 59.191 1.06195V0.619867H63.041C66.7566 0.619867 68.9464 1.69121 68.9464 4.58921C68.9464 7.61468 66.2923 8.93659 63.7709 8.93659L63.7678 8.93808ZM63.1039 1.50332H62.7723V7.99341H63.3694C65.5592 7.99341 66.6867 7.04808 66.6867 4.65334C66.6867 2.2586 65.692 1.50332 63.1039 1.50332ZM40.6104 11.3335C38.0891 11.3335 36.3676 9.63144 36.3676 7.17481C36.3429 6.63757 36.4343 6.10118 36.6363 5.59791C36.8383 5.09465 37.1468 4.6349 37.5431 4.24629C37.9395 3.85768 38.4155 3.54823 38.9426 3.33657C39.4697 3.1249 40.037 3.0154 40.6104 3.0146C41.1803 3.01706 41.7438 3.12824 42.2665 3.34138C42.7891 3.55452 43.2601 3.86514 43.6507 4.25438C44.0413 4.64363 44.3433 5.10333 44.5385 5.60551C44.7336 6.1077 44.8177 6.64188 44.7857 7.17553C44.8062 7.70685 44.7138 8.2367 44.5142 8.7343C44.3145 9.23191 44.0115 9.68735 43.6226 10.0742C43.2338 10.4611 42.7668 10.7718 42.2489 10.988C41.731 11.2043 41.1725 11.322 40.6057 11.3343L40.6104 11.3335ZM40.6104 3.7706C38.8818 3.7706 38.2878 5.34671 38.2878 7.17481C38.2878 8.87618 38.819 10.5768 40.6104 10.5768C42.339 10.5768 42.8662 8.87617 42.8662 7.11365C42.8662 5.41302 42.203 3.77353 40.6104 3.77353V3.7706ZM11.4149 10.5768V10.1347C12.0788 10.1347 12.2116 9.94531 12.2116 9.75668C12.2059 9.54065 12.1609 9.32711 12.0788 9.12521C12.0788 9.12521 11.946 8.62194 11.8132 8.24099H9.22509L8.96028 9.06036C8.87773 9.26164 8.83281 9.47479 8.82749 9.69039C8.83885 9.76079 8.8652 9.8283 8.90499 9.88895C8.94477 9.94959 8.99719 10.0021 9.05907 10.0433C9.12095 10.0846 9.19104 10.1137 9.26518 10.1291C9.33933 10.1444 9.41599 10.1455 9.49063 10.1325V10.5746H6.90329V10.1325C7.18632 10.1618 7.47031 10.0855 7.6938 9.92007C7.9173 9.7546 8.06236 9.51325 8.0976 9.24826L10.0878 3.57457C10.0548 3.43715 9.96891 3.31604 9.84651 3.23443C9.7241 3.15283 9.57385 3.11651 9.42464 3.13248V2.69039H11.5461C13.2746 7.47986 13.7359 8.73984 13.7359 8.73984C14.0674 9.81047 14.399 10.1266 14.9302 10.1266V10.5687H11.4133L11.4149 10.5768ZM10.4861 4.46099L9.49063 7.54912H11.5477L10.4861 4.46099Z" fill="#4A7E98"/>
</g>
<defs>
<clipPath id="clip0_3066_2852">
<rect width="99" height="14" fill="white" transform="translate(0 0.174805)"/>
</clipPath>
</defs>
</svg>
