<svg width="253" height="76" viewBox="0 0 253 76" fill="none" xmlns="http://www.w3.org/2000/svg">
<path fill-rule="evenodd" clip-rule="evenodd" d="M33.5279 52.4928L32.7026 50.5226L37.7345 44.6653L33.7409 40.0859C32.3032 40.4587 30.8123 40.645 29.2415 40.645C27.6973 40.645 26.2063 40.4587 24.7952 40.0859L20.775 44.6653L25.7803 50.496L20.1094 66.2042C25.5407 71.7952 29.2415 75.1765 29.2415 75.1765C29.2415 75.1765 29.2415 75.1765 29.2415 75.1498V75.1765C29.2415 75.1765 32.9156 71.7686 38.3735 66.2042L33.5279 52.4928Z" fill="white"/>
<path fill-rule="evenodd" clip-rule="evenodd" d="M29.2669 4.11614C39.3575 4.11614 47.5311 12.2897 47.5311 22.3803C47.5311 23.2322 47.4778 24.0309 47.3713 24.8563C46.5194 31.113 42.5258 36.3579 37.0146 38.9404L49.7409 53.4772C54.6131 46.2887 58.4204 37.9021 58.4204 29.3025C58.3937 13.2216 45.3479 0.175781 29.2669 0.175781C13.186 0.175781 0.140137 13.2216 0.140137 29.3025C0.140137 37.9287 3.97401 46.3153 8.84623 53.5304L21.5726 38.9671C16.0347 36.3845 12.0145 31.1396 11.1625 24.8563C11.056 24.0576 11.0028 23.2322 11.0028 22.3803C11.0028 12.2897 19.1764 4.11614 29.2669 4.11614Z" fill="white"/>
<path d="M231.098 56.3242C231.081 56.3242 231.059 56.3155 231.033 56.2982C231.007 56.2722 230.994 56.2462 230.994 56.2202V55.6482C230.994 55.5789 231.029 55.5442 231.098 55.5442C231.193 55.5442 231.302 55.5442 231.423 55.5442C231.544 55.5442 231.661 55.5399 231.774 55.5312C231.895 55.5225 232.004 55.5139 232.099 55.5052C232.194 55.4965 232.268 55.4792 232.32 55.4532C232.537 55.3492 232.714 55.2105 232.853 55.0372C232.992 54.8639 233.096 54.6645 233.165 54.4392C233.243 54.2139 233.295 53.9669 233.321 53.6982C233.347 53.4295 233.36 53.1435 233.36 52.8402V39.8531C233.36 39.6191 233.265 39.4328 233.074 39.2941C232.892 39.1468 232.675 39.0385 232.424 38.9691C232.181 38.8911 231.93 38.8391 231.67 38.8131C231.419 38.7871 231.228 38.7741 231.098 38.7741C231.055 38.7741 231.024 38.7611 231.007 38.7351C230.998 38.7091 230.994 38.6875 230.994 38.6701V38.0981C230.994 38.0808 230.998 38.0591 231.007 38.0331C231.024 38.0071 231.055 37.9941 231.098 37.9941H236.987L248.193 50.3962C248.237 50.4395 248.267 50.4742 248.284 50.5002C248.302 50.5175 248.323 50.5262 248.349 50.5262C248.384 50.5262 248.406 50.5132 248.414 50.4872C248.423 50.4612 248.427 50.4352 248.427 50.4092V42.6872C248.427 41.8292 248.397 41.1445 248.336 40.6331C248.276 40.1131 248.163 39.7188 247.998 39.4501C247.834 39.1728 247.613 38.9908 247.335 38.9041C247.058 38.8175 246.703 38.7741 246.269 38.7741H245.606C245.563 38.7741 245.533 38.7611 245.515 38.7351C245.507 38.7091 245.502 38.6875 245.502 38.6701V38.0981C245.502 38.0808 245.507 38.0591 245.515 38.0331C245.533 38.0071 245.563 37.9941 245.606 37.9941H252.756C252.808 37.9941 252.839 38.0071 252.847 38.0331C252.856 38.0591 252.86 38.0808 252.86 38.0981V38.6701C252.86 38.6875 252.852 38.7091 252.834 38.7351C252.826 38.7611 252.8 38.7741 252.756 38.7741C252.583 38.7741 252.358 38.8088 252.08 38.8781C251.812 38.9475 251.547 39.0471 251.287 39.1771C251.027 39.3071 250.802 39.4675 250.611 39.6581C250.429 39.8488 250.338 40.0655 250.338 40.3081V55.6872C250.338 55.8345 250.304 55.9602 250.234 56.0642C250.165 56.1595 250.074 56.2375 249.961 56.2982C249.857 56.3589 249.74 56.4022 249.61 56.4282C249.489 56.4629 249.376 56.4802 249.272 56.4802C249.099 56.4802 248.895 56.4412 248.661 56.3632C248.436 56.2939 248.211 56.1335 247.985 55.8822L235.713 42.2712C235.652 42.2105 235.609 42.1758 235.583 42.1672C235.557 42.1498 235.522 42.1412 235.479 42.1412C235.436 42.1412 235.414 42.1845 235.414 42.2712V53.8802C235.414 54.1229 235.47 54.3352 235.583 54.5172C235.704 54.6905 235.856 54.8422 236.038 54.9722C236.22 55.0935 236.42 55.1932 236.636 55.2712C236.862 55.3405 237.078 55.3969 237.286 55.4402C237.503 55.4835 237.694 55.5139 237.858 55.5312C238.032 55.5399 238.162 55.5442 238.248 55.5442C238.292 55.5442 238.322 55.5615 238.339 55.5962C238.348 55.6135 238.352 55.6309 238.352 55.6482V56.2202C238.352 56.2375 238.344 56.2592 238.326 56.2852C238.318 56.3112 238.292 56.3242 238.248 56.3242H231.098Z" fill="white"/>
<path d="M217.404 56.6633C217.101 56.6633 216.719 56.6373 216.26 56.5853C215.809 56.5333 215.311 56.4379 214.765 56.2993C214.228 56.1606 213.664 55.9786 213.075 55.7533C212.486 55.5279 211.905 55.2419 211.333 54.8953C210.77 54.5399 210.232 54.1239 209.721 53.6473C209.21 53.1619 208.759 52.6029 208.369 51.9703C207.988 51.3289 207.68 50.6009 207.446 49.7863C207.221 48.9716 207.108 48.0572 207.108 47.0432C207.108 46.1419 207.229 45.2796 207.472 44.4562C207.723 43.6329 208.079 42.8659 208.538 42.1552C208.997 41.4446 209.552 40.7989 210.202 40.2182C210.861 39.6376 211.593 39.1436 212.399 38.7362C213.205 38.3289 214.08 38.0126 215.025 37.7872C215.97 37.5619 216.962 37.4492 218.002 37.4492C218.903 37.4492 219.774 37.5619 220.615 37.7872C221.464 38.0039 222.257 38.3159 222.994 38.7232C223.731 39.1219 224.402 39.6029 225.009 40.1662C225.624 40.7296 226.153 41.3579 226.595 42.0512C227.037 42.7446 227.379 43.4942 227.622 44.3002C227.865 45.0976 227.986 45.9296 227.986 46.7962C227.986 47.6109 227.869 48.4212 227.635 49.2273C227.401 50.0246 227.063 50.7916 226.621 51.5283C226.179 52.2563 225.642 52.9323 225.009 53.5563C224.385 54.1803 223.683 54.7263 222.903 55.1943C222.123 55.6536 221.269 56.0133 220.342 56.2733C219.415 56.5333 218.435 56.6633 217.404 56.6633ZM210.93 46.5622C210.93 47.2642 210.999 47.9662 211.138 48.6682C211.285 49.3703 211.498 50.0463 211.775 50.6963C212.052 51.3463 212.395 51.9573 212.802 52.5293C213.209 53.0926 213.673 53.5866 214.193 54.0113C214.713 54.4273 215.289 54.7566 215.922 54.9993C216.563 55.2333 217.257 55.3503 218.002 55.3503C219.051 55.3503 219.961 55.1293 220.732 54.6873C221.503 54.2366 222.14 53.6429 222.643 52.9063C223.154 52.1696 223.531 51.3246 223.774 50.3713C224.025 49.4093 224.151 48.4169 224.151 47.3942C224.151 46.6489 224.077 45.9209 223.93 45.2102C223.791 44.4909 223.583 43.8106 223.306 43.1692C223.037 42.5192 222.699 41.9256 222.292 41.3882C221.893 40.8422 221.43 40.3699 220.901 39.9712C220.381 39.5726 219.8 39.2649 219.159 39.0482C218.526 38.8229 217.837 38.7102 217.092 38.7102C216.425 38.7102 215.809 38.8142 215.246 39.0222C214.683 39.2302 214.171 39.5162 213.712 39.8802C213.261 40.2356 212.863 40.6646 212.516 41.1672C212.169 41.6612 211.879 42.1986 211.645 42.7792C211.411 43.3599 211.233 43.9752 211.112 44.6252C210.991 45.2666 210.93 45.9122 210.93 46.5622Z" fill="white"/>
<path d="M201.589 53.8542C201.589 54.1489 201.633 54.3959 201.719 54.5952C201.815 54.7945 201.945 54.9549 202.109 55.0762C202.283 55.1975 202.491 55.2842 202.733 55.3362C202.985 55.3882 203.262 55.4142 203.565 55.4142C203.635 55.4142 203.669 55.4489 203.669 55.5182V56.2202C203.669 56.2462 203.665 56.2722 203.656 56.2982C203.648 56.3155 203.617 56.3242 203.565 56.3242H195.882C195.839 56.3242 195.809 56.3112 195.791 56.2852C195.783 56.2592 195.778 56.2375 195.778 56.2202V55.5182C195.778 55.5009 195.783 55.4792 195.791 55.4532C195.809 55.4272 195.839 55.4142 195.882 55.4142C196.186 55.4142 196.459 55.3969 196.701 55.3622C196.953 55.3189 197.165 55.2322 197.338 55.1022C197.512 54.9722 197.646 54.7859 197.741 54.5432C197.837 54.3005 197.884 53.9712 197.884 53.5552V40.4641C197.884 40.1695 197.837 39.9225 197.741 39.7231C197.655 39.5238 197.525 39.3635 197.351 39.2421C197.187 39.1208 196.979 39.0341 196.727 38.9821C196.485 38.9301 196.212 38.9041 195.908 38.9041C195.839 38.9041 195.804 38.8695 195.804 38.8001V38.0981C195.804 38.0288 195.839 37.9941 195.908 37.9941H203.591C203.635 37.9941 203.661 38.0071 203.669 38.0331C203.687 38.0591 203.695 38.0808 203.695 38.0981V38.8001C203.695 38.8175 203.687 38.8391 203.669 38.8651C203.661 38.8911 203.635 38.9041 203.591 38.9041C203.288 38.9041 203.011 38.9258 202.759 38.9691C202.517 39.0038 202.309 39.0861 202.135 39.2161C201.962 39.3461 201.828 39.5325 201.732 39.7751C201.637 40.0178 201.589 40.3471 201.589 40.7631V53.8542Z" fill="white"/>
<path d="M181.435 55.9743C181.322 55.9743 181.253 55.8833 181.227 55.7013C181.132 54.8866 181.058 54.2539 181.006 53.8033C180.954 53.3526 180.915 53.0146 180.889 52.7893C180.872 52.5639 180.859 52.4209 180.85 52.3603C180.85 52.2909 180.85 52.2433 180.85 52.2173C180.85 52.1219 180.893 52.0179 180.98 51.9053C181.067 51.7926 181.171 51.7363 181.292 51.7363C181.379 51.7363 181.47 51.7883 181.565 51.8923C181.669 51.9963 181.764 52.1176 181.851 52.2563C181.946 52.3949 182.024 52.5336 182.085 52.6723C182.154 52.8109 182.198 52.9106 182.215 52.9713C182.44 53.4479 182.683 53.8509 182.943 54.1803C183.212 54.5009 183.515 54.7609 183.853 54.9603C184.191 55.1509 184.572 55.2896 184.997 55.3763C185.422 55.4629 185.907 55.5063 186.453 55.5063C187.38 55.5063 188.1 55.2853 188.611 54.8433C189.131 54.4013 189.391 53.6906 189.391 52.7113C189.391 52.1479 189.265 51.6366 189.014 51.1773C188.771 50.7179 188.451 50.2933 188.052 49.9033C187.653 49.5046 187.198 49.1276 186.687 48.7722C186.176 48.4169 185.651 48.0572 185.114 47.6932C184.577 47.3292 184.052 46.9522 183.541 46.5622C183.03 46.1636 182.575 45.7259 182.176 45.2492C181.777 44.7726 181.452 44.2439 181.201 43.6632C180.958 43.0826 180.837 42.4282 180.837 41.7002C180.837 41.2582 180.915 40.8466 181.071 40.4652C181.236 40.0839 181.452 39.7372 181.721 39.4252C181.99 39.1132 182.302 38.8359 182.657 38.5932C183.021 38.3419 183.407 38.1339 183.814 37.9692C184.221 37.7959 184.633 37.6659 185.049 37.5792C185.474 37.4926 185.885 37.4492 186.284 37.4492C186.605 37.4492 186.925 37.4796 187.246 37.5402C187.575 37.5922 187.896 37.6572 188.208 37.7352C188.529 37.8132 188.849 37.8999 189.17 37.9952C189.491 38.0819 189.807 38.1642 190.119 38.2422L190.977 38.1642C191.055 38.1642 191.103 38.1989 191.12 38.2682C191.146 38.3289 191.163 38.3852 191.172 38.4372L191.549 41.4922C191.549 41.5356 191.493 41.5659 191.38 41.5832C191.267 41.6006 191.181 41.6092 191.12 41.6092C191.068 41.6092 190.99 41.6049 190.886 41.5962C190.782 41.5789 190.721 41.5616 190.704 41.5442C190.678 41.5182 190.643 41.4662 190.6 41.3882C190.565 41.3016 190.526 41.2106 190.483 41.1152C190.44 41.0112 190.392 40.9072 190.34 40.8032C190.297 40.6992 190.249 40.6082 190.197 40.5302C189.781 39.8889 189.248 39.4122 188.598 39.1002C187.948 38.7796 187.233 38.6192 186.453 38.6192C186.115 38.6192 185.799 38.6582 185.504 38.7362C185.209 38.8142 184.954 38.9399 184.737 39.1132C184.52 39.2779 184.347 39.4902 184.217 39.7502C184.096 40.0102 184.035 40.3222 184.035 40.6862C184.035 41.2149 184.156 41.6959 184.399 42.1292C184.65 42.5539 184.975 42.9569 185.374 43.3382C185.781 43.7109 186.241 44.0749 186.752 44.4302C187.272 44.7856 187.796 45.1496 188.325 45.5222C188.862 45.8862 189.387 46.2762 189.898 46.6922C190.418 47.1082 190.877 47.5676 191.276 48.0702C191.683 48.5729 192.008 49.1319 192.251 49.7473C192.502 50.3626 192.628 51.0559 192.628 51.8273C192.628 52.3386 192.537 52.8153 192.355 53.2573C192.182 53.6993 191.943 54.1023 191.64 54.4663C191.337 54.8216 190.981 55.1379 190.574 55.4153C190.167 55.6926 189.729 55.9266 189.261 56.1173C188.802 56.2993 188.325 56.4379 187.831 56.5333C187.346 56.6286 186.869 56.6763 186.401 56.6763C185.812 56.6763 185.296 56.6329 184.854 56.5463C184.421 56.4596 184.044 56.3643 183.723 56.2603C183.411 56.1476 183.147 56.0479 182.93 55.9613C182.713 55.8746 182.531 55.8313 182.384 55.8313C182.332 55.8313 182.293 55.8356 182.267 55.8443L181.435 55.9743Z" fill="white"/>
<path d="M166.492 55.9743C166.379 55.9743 166.31 55.8833 166.284 55.7013C166.188 54.8866 166.115 54.2539 166.063 53.8033C166.011 53.3526 165.972 53.0146 165.946 52.7893C165.928 52.5639 165.915 52.4209 165.907 52.3603C165.907 52.2909 165.907 52.2433 165.907 52.2173C165.907 52.1219 165.95 52.0179 166.037 51.9053C166.123 51.7926 166.227 51.7363 166.349 51.7363C166.435 51.7363 166.526 51.7883 166.622 51.8923C166.726 51.9963 166.821 52.1176 166.908 52.2563C167.003 52.3949 167.081 52.5336 167.142 52.6723C167.211 52.8109 167.254 52.9106 167.272 52.9713C167.497 53.4479 167.74 53.8509 168 54.1803C168.268 54.5009 168.572 54.7609 168.91 54.9603C169.248 55.1509 169.629 55.2896 170.054 55.3763C170.478 55.4629 170.964 55.5063 171.51 55.5063C172.437 55.5063 173.156 55.2853 173.668 54.8433C174.188 54.4013 174.448 53.6906 174.448 52.7113C174.448 52.1479 174.322 51.6366 174.071 51.1773C173.828 50.7179 173.507 50.2933 173.109 49.9033C172.71 49.5046 172.255 49.1276 171.744 48.7722C171.232 48.4169 170.708 48.0572 170.171 47.6932C169.633 47.3292 169.109 46.9522 168.598 46.5622C168.086 46.1636 167.631 45.7259 167.233 45.2492C166.834 44.7726 166.509 44.2439 166.258 43.6632C166.015 43.0826 165.894 42.4282 165.894 41.7002C165.894 41.2582 165.972 40.8466 166.128 40.4652C166.292 40.0839 166.509 39.7372 166.778 39.4252C167.046 39.1132 167.358 38.8359 167.714 38.5932C168.078 38.3419 168.463 38.1339 168.871 37.9692C169.278 37.7959 169.69 37.6659 170.106 37.5792C170.53 37.4926 170.942 37.4492 171.341 37.4492C171.661 37.4492 171.982 37.4796 172.303 37.5402C172.632 37.5922 172.953 37.6572 173.265 37.7352C173.585 37.8132 173.906 37.8999 174.227 37.9952C174.547 38.0819 174.864 38.1642 175.176 38.2422L176.034 38.1642C176.112 38.1642 176.159 38.1989 176.177 38.2682C176.203 38.3289 176.22 38.3852 176.229 38.4372L176.606 41.4922C176.606 41.5356 176.549 41.5659 176.437 41.5832C176.324 41.6006 176.237 41.6092 176.177 41.6092C176.125 41.6092 176.047 41.6049 175.943 41.5962C175.839 41.5789 175.778 41.5616 175.761 41.5442C175.735 41.5182 175.7 41.4662 175.657 41.3882C175.622 41.3016 175.583 41.2106 175.54 41.1152C175.496 41.0112 175.449 40.9072 175.397 40.8032C175.353 40.6992 175.306 40.6082 175.254 40.5302C174.838 39.8889 174.305 39.4122 173.655 39.1002C173.005 38.7796 172.29 38.6192 171.51 38.6192C171.172 38.6192 170.855 38.6582 170.561 38.7362C170.266 38.8142 170.01 38.9399 169.794 39.1132C169.577 39.2779 169.404 39.4902 169.274 39.7502C169.152 40.0102 169.092 40.3222 169.092 40.6862C169.092 41.2149 169.213 41.6959 169.456 42.1292C169.707 42.5539 170.032 42.9569 170.431 43.3382C170.838 43.7109 171.297 44.0749 171.809 44.4302C172.329 44.7856 172.853 45.1496 173.382 45.5222C173.919 45.8862 174.443 46.2762 174.955 46.6922C175.475 47.1082 175.934 47.5676 176.333 48.0702C176.74 48.5729 177.065 49.1319 177.308 49.7473C177.559 50.3626 177.685 51.0559 177.685 51.8273C177.685 52.3386 177.594 52.8153 177.412 53.2573C177.238 53.6993 177 54.1023 176.697 54.4663C176.393 54.8216 176.038 55.1379 175.631 55.4153C175.223 55.6926 174.786 55.9266 174.318 56.1173C173.858 56.2993 173.382 56.4379 172.888 56.5333C172.402 56.6286 171.926 56.6763 171.458 56.6763C170.868 56.6763 170.353 56.6329 169.911 56.5463C169.477 56.4596 169.1 56.3643 168.78 56.2603C168.468 56.1476 168.203 56.0479 167.987 55.9613C167.77 55.8746 167.588 55.8313 167.441 55.8313C167.389 55.8313 167.35 55.8356 167.324 55.8443L166.492 55.9743Z" fill="white"/>
<path d="M146.986 55.6612C146.986 55.6525 146.991 55.6352 146.999 55.6092C147.008 55.5745 147.038 55.5572 147.09 55.5572H147.376C147.74 55.5312 148.113 55.5182 148.494 55.5182C148.876 55.5095 149.222 55.4619 149.534 55.3752C149.846 55.2799 150.102 55.1195 150.301 54.8942C150.501 54.6602 150.6 54.3005 150.6 53.8152V40.5031C150.6 40.1651 150.531 39.8921 150.392 39.6841C150.254 39.4675 150.072 39.2941 149.846 39.1641C149.621 39.0341 149.365 38.9388 149.079 38.8781C148.793 38.8088 148.503 38.7525 148.208 38.7091H147.935C147.892 38.7091 147.862 38.6961 147.844 38.6701C147.836 38.6441 147.831 38.6225 147.831 38.6051V38.0981C147.831 38.0808 147.836 38.0591 147.844 38.0331C147.862 38.0071 147.892 37.9941 147.935 37.9941H160.883C161.039 37.9941 161.152 38.0245 161.221 38.0851C161.291 38.1371 161.334 38.2585 161.351 38.4491L161.585 42.6092C161.585 42.6525 161.546 42.6872 161.468 42.7132C161.399 42.7305 161.334 42.7392 161.273 42.7392C161.204 42.7392 161.135 42.7305 161.065 42.7132C160.996 42.6958 160.948 42.6698 160.922 42.6352C160.862 42.5485 160.818 42.4228 160.792 42.2582C160.766 42.0848 160.736 41.8942 160.701 41.6862C160.675 41.4781 160.632 41.2615 160.571 41.0361C160.519 40.8108 160.437 40.6028 160.324 40.4121C160.212 40.2215 160.056 40.0568 159.856 39.9181C159.666 39.7708 159.419 39.6711 159.115 39.6191H154.474C154.362 39.6191 154.305 39.6755 154.305 39.7881V45.9892C154.305 46.0758 154.349 46.1192 154.435 46.1192H158.153C158.37 46.1192 158.582 46.0932 158.79 46.0412C159.007 45.9805 159.193 45.8765 159.349 45.7292C159.514 45.5818 159.644 45.3782 159.739 45.1182C159.843 44.8495 159.895 44.5072 159.895 44.0912C159.895 44.0218 159.93 43.9872 159.999 43.9872H160.506C160.576 43.9872 160.61 44.0218 160.61 44.0912V50.0452C160.61 50.0885 160.597 50.1188 160.571 50.1362C160.545 50.1448 160.524 50.1492 160.506 50.1492H159.999C159.956 50.1492 159.926 50.1362 159.908 50.1102C159.9 50.0842 159.895 50.0625 159.895 50.0452C159.895 49.5598 159.843 49.1698 159.739 48.8752C159.644 48.5718 159.514 48.3378 159.349 48.1732C159.185 47.9998 158.994 47.8872 158.777 47.8352C158.569 47.7745 158.348 47.7442 158.114 47.7442H154.435C154.349 47.7442 154.305 47.7875 154.305 47.8742V53.5552C154.305 53.8065 154.344 54.0102 154.422 54.1662C154.5 54.3135 154.604 54.4262 154.734 54.5042C154.873 54.5822 155.029 54.6342 155.202 54.6602C155.376 54.6862 155.558 54.6992 155.748 54.6992H159.297C159.8 54.6992 160.22 54.5865 160.558 54.3612C160.896 54.1272 161.169 53.8455 161.377 53.5162C161.585 53.1868 161.737 52.8445 161.832 52.4892C161.936 52.1338 162.001 51.8305 162.027 51.5792C162.045 51.4665 162.101 51.3798 162.196 51.3192C162.292 51.2498 162.4 51.2152 162.521 51.2152C162.565 51.2152 162.617 51.2325 162.677 51.2672C162.738 51.3018 162.768 51.3408 162.768 51.3842L162.339 56.1422C162.322 56.1855 162.296 56.2289 162.261 56.2722C162.235 56.3069 162.201 56.3242 162.157 56.3242H147.09C147.038 56.3242 147.008 56.3112 146.999 56.2852C146.991 56.2505 146.986 56.2289 146.986 56.2202V56.0382V55.6612Z" fill="white"/>
<path d="M141.884 45.6772C142.005 45.6772 142.165 45.6685 142.365 45.6512C142.564 45.6252 142.755 45.5602 142.937 45.4562C143.127 45.3435 143.288 45.1745 143.418 44.9492C143.556 44.7152 143.626 44.3902 143.626 43.9742C143.626 43.9048 143.66 43.8702 143.73 43.8702H144.237C144.306 43.8702 144.341 43.9048 144.341 43.9742V49.2002C144.341 49.2435 144.328 49.2738 144.302 49.2912C144.276 49.2998 144.254 49.3042 144.237 49.3042H143.73C143.686 49.3042 143.656 49.2912 143.639 49.2652C143.63 49.2392 143.626 49.2175 143.626 49.2002C143.626 48.7322 143.556 48.3725 143.418 48.1212C143.288 47.8612 143.132 47.6705 142.95 47.5492C142.768 47.4278 142.577 47.3585 142.378 47.3412C142.187 47.3152 142.031 47.3022 141.91 47.3022H137.568C137.464 47.3022 137.386 47.3368 137.334 47.4062C137.282 47.4668 137.256 47.5492 137.256 47.6532V53.8802C137.256 54.1142 137.299 54.3135 137.386 54.4782C137.481 54.6342 137.607 54.7729 137.763 54.8942C137.927 55.0069 138.118 55.1065 138.335 55.1932C138.551 55.2799 138.79 55.3622 139.05 55.4402C139.18 55.4835 139.318 55.5225 139.466 55.5572C139.613 55.5919 139.734 55.6092 139.83 55.6092C139.882 55.6092 139.912 55.6265 139.921 55.6612C139.929 55.6872 139.934 55.7045 139.934 55.7132V56.2202C139.934 56.2375 139.925 56.2592 139.908 56.2852C139.899 56.3112 139.873 56.3242 139.83 56.3242H131.562C131.518 56.3242 131.488 56.3112 131.471 56.2852C131.462 56.2592 131.458 56.2375 131.458 56.2202V55.7132C131.458 55.6959 131.462 55.6742 131.471 55.6482C131.479 55.6222 131.51 55.6092 131.562 55.6092C131.657 55.6092 131.778 55.5919 131.926 55.5572C132.082 55.5139 132.199 55.4749 132.277 55.4402C132.649 55.2755 132.953 55.0589 133.187 54.7902C133.429 54.5129 133.551 54.1792 133.551 53.7892V39.9441C133.551 39.6148 133.46 39.3548 133.278 39.1641C133.096 38.9735 132.888 38.8305 132.654 38.7351C132.428 38.6398 132.212 38.5791 132.004 38.5531C131.804 38.5271 131.679 38.5141 131.627 38.5141H131.575C131.531 38.5141 131.501 38.5011 131.484 38.4751C131.475 38.4491 131.471 38.4275 131.471 38.4101V38.0981C131.471 38.0808 131.475 38.0591 131.484 38.0331C131.501 38.0071 131.531 37.9941 131.575 37.9941H144.419C144.523 38.0115 144.601 38.0375 144.653 38.0721C144.705 38.0981 144.731 38.1718 144.731 38.2931V41.8292C144.731 41.9332 144.7 41.9982 144.64 42.0242C144.579 42.0502 144.51 42.0632 144.432 42.0632H144.172C144.154 42.0545 144.128 41.9808 144.094 41.8422C144.068 41.6948 144.029 41.5258 143.977 41.3351C143.925 41.1358 143.86 40.9408 143.782 40.7501C143.712 40.5508 143.63 40.3948 143.535 40.2821C143.413 40.1521 143.296 40.0438 143.184 39.9571C143.071 39.8705 142.945 39.8011 142.807 39.7491C142.668 39.6971 142.508 39.6625 142.326 39.6451C142.144 39.6278 141.923 39.6191 141.663 39.6191H137.516C137.342 39.6191 137.256 39.7058 137.256 39.8791V45.3782C137.256 45.5775 137.36 45.6772 137.568 45.6772H141.884Z" fill="white"/>
<path d="M117.529 56.6633C117.226 56.6633 116.844 56.6373 116.385 56.5853C115.934 56.5333 115.436 56.4379 114.89 56.2993C114.353 56.1606 113.789 55.9786 113.2 55.7533C112.611 55.5279 112.03 55.2419 111.458 54.8953C110.895 54.5399 110.357 54.1239 109.846 53.6473C109.335 53.1619 108.884 52.6029 108.494 51.9703C108.113 51.3289 107.805 50.6009 107.571 49.7863C107.346 48.9716 107.233 48.0572 107.233 47.0432C107.233 46.1419 107.354 45.2796 107.597 44.4562C107.848 43.6329 108.204 42.8659 108.663 42.1552C109.122 41.4446 109.677 40.7989 110.327 40.2182C110.986 39.6376 111.718 39.1436 112.524 38.7362C113.33 38.3289 114.205 38.0126 115.15 37.7872C116.095 37.5619 117.087 37.4492 118.127 37.4492C119.028 37.4492 119.899 37.5619 120.74 37.7872C121.589 38.0039 122.382 38.3159 123.119 38.7232C123.856 39.1219 124.527 39.6029 125.134 40.1662C125.749 40.7296 126.278 41.3579 126.72 42.0512C127.162 42.7446 127.504 43.4942 127.747 44.3002C127.99 45.0976 128.111 45.9296 128.111 46.7962C128.111 47.6109 127.994 48.4212 127.76 49.2273C127.526 50.0246 127.188 50.7916 126.746 51.5283C126.304 52.2563 125.767 52.9323 125.134 53.5563C124.51 54.1803 123.808 54.7263 123.028 55.1943C122.248 55.6536 121.394 56.0133 120.467 56.2733C119.54 56.5333 118.56 56.6633 117.529 56.6633ZM111.055 46.5622C111.055 47.2642 111.124 47.9662 111.263 48.6682C111.41 49.3703 111.623 50.0463 111.9 50.6963C112.177 51.3463 112.52 51.9573 112.927 52.5293C113.334 53.0926 113.798 53.5866 114.318 54.0113C114.838 54.4273 115.414 54.7566 116.047 54.9993C116.688 55.2333 117.382 55.3503 118.127 55.3503C119.176 55.3503 120.086 55.1293 120.857 54.6873C121.628 54.2366 122.265 53.6429 122.768 52.9063C123.279 52.1696 123.656 51.3246 123.899 50.3713C124.15 49.4093 124.276 48.4169 124.276 47.3942C124.276 46.6489 124.202 45.9209 124.055 45.2102C123.916 44.4909 123.708 43.8106 123.431 43.1692C123.162 42.5192 122.824 41.9256 122.417 41.3882C122.018 40.8422 121.555 40.3699 121.026 39.9712C120.506 39.5726 119.925 39.2649 119.284 39.0482C118.651 38.8229 117.962 38.7102 117.217 38.7102C116.55 38.7102 115.934 38.8142 115.371 39.0222C114.808 39.2302 114.296 39.5162 113.837 39.8802C113.386 40.2356 112.988 40.6646 112.641 41.1672C112.294 41.6612 112.004 42.1986 111.77 42.7792C111.536 43.3599 111.358 43.9752 111.237 44.6252C111.116 45.2666 111.055 45.9122 111.055 46.5622Z" fill="white"/>
<path d="M87.7654 55.6498C87.7654 55.6412 87.7697 55.6238 87.7784 55.5978C87.787 55.5632 87.8174 55.5458 87.8694 55.5458C87.9214 55.5458 88.0037 55.5372 88.1164 55.5198C88.229 55.5025 88.346 55.4852 88.4674 55.4678C88.5887 55.4505 88.7014 55.4332 88.8054 55.4158C88.9094 55.3898 88.9831 55.3725 89.0264 55.3638C89.5204 55.2512 89.8627 55.0692 90.0534 54.8178C90.2527 54.5578 90.3524 54.2372 90.3524 53.8558V40.6478C90.3524 40.2145 90.2614 39.8721 90.0794 39.6208C89.8974 39.3695 89.6851 39.1831 89.4424 39.0618C89.2084 38.9318 88.9787 38.8538 88.7534 38.8278C88.5367 38.7931 88.3894 38.7758 88.3114 38.7758H87.8174C87.774 38.7758 87.7437 38.7628 87.7264 38.7368C87.7177 38.7108 87.7134 38.6891 87.7134 38.6718V38.0998C87.7134 38.0824 87.7177 38.0651 87.7264 38.0478C87.735 38.0218 87.7654 38.0044 87.8174 37.9958C87.826 37.9958 87.8434 37.9958 87.8694 37.9958C87.904 37.9958 87.969 37.9958 88.0644 37.9958C88.1597 37.9871 88.2984 37.9828 88.4804 37.9828C88.6624 37.9741 88.9181 37.9654 89.2474 37.9568C89.7241 37.9481 90.2311 37.9351 90.7684 37.9178C91.3144 37.9004 91.8647 37.8831 92.4194 37.8658C92.9741 37.8484 93.5201 37.8354 94.0574 37.8268C94.6034 37.8094 95.1147 37.8008 95.5914 37.8008H96.9044C97.5891 37.8008 98.2868 37.9178 98.9974 38.1518C99.7081 38.3858 100.349 38.7325 100.921 39.1918C101.502 39.6425 101.974 40.2058 102.338 40.8818C102.711 41.5578 102.897 42.3378 102.897 43.2218C102.897 43.7938 102.819 44.3051 102.663 44.7558C102.507 45.1978 102.291 45.5921 102.013 45.9388C101.745 46.2768 101.42 46.5758 101.038 46.8358C100.666 47.0958 100.258 47.3255 99.8164 47.5248L103.755 53.7648C104.093 54.3022 104.488 54.7918 104.938 55.2338C105.389 55.6672 105.913 55.9705 106.511 56.1438C106.581 56.1612 106.62 56.1872 106.628 56.2218C106.646 56.2478 106.654 56.2825 106.654 56.3258C106.654 56.4558 106.62 56.5425 106.55 56.5858C106.481 56.6292 106.373 56.6508 106.225 56.6508C105.861 56.6508 105.445 56.6248 104.977 56.5728C104.518 56.5295 104.054 56.4515 103.586 56.3388C103.118 56.2348 102.672 56.0962 102.247 55.9228C101.831 55.7495 101.48 55.5328 101.194 55.2728C100.917 55.0302 100.635 54.7225 100.349 54.3498C100.063 53.9772 99.7731 53.5785 99.4784 53.1538C99.1924 52.7205 98.9064 52.2742 98.6204 51.8148C98.3431 51.3468 98.0701 50.8918 97.8014 50.4498C97.5414 50.0078 97.2901 49.5961 97.0474 49.2148C96.8048 48.8335 96.5838 48.5085 96.3844 48.2398L94.3564 48.0968C94.3477 48.0968 94.3131 48.0968 94.2524 48.0968C94.1917 48.0968 94.1484 48.1055 94.1224 48.1228C94.0964 48.1401 94.0791 48.1575 94.0704 48.1748C94.0617 48.1921 94.0574 48.2268 94.0574 48.2788V53.8168C94.0574 54.0508 94.0877 54.2545 94.1484 54.4278C94.2091 54.6012 94.3087 54.7528 94.4474 54.8828C94.5947 55.0042 94.7811 55.1038 95.0064 55.1818C95.2404 55.2598 95.5221 55.3205 95.8514 55.3638C95.9034 55.3725 95.9771 55.3855 96.0724 55.4028C96.1764 55.4202 96.2848 55.4418 96.3974 55.4678C96.5188 55.4852 96.6358 55.5025 96.7484 55.5198C96.8611 55.5372 96.9564 55.5458 97.0344 55.5458C97.0864 55.5458 97.1168 55.5588 97.1254 55.5848C97.1341 55.6108 97.1384 55.6325 97.1384 55.6498V56.2218C97.1384 56.2392 97.1298 56.2608 97.1124 56.2868C97.1038 56.3128 97.0778 56.3258 97.0344 56.3258H87.8694C87.826 56.3258 87.7957 56.2652 87.7784 56.1438C87.7697 56.0225 87.7654 55.9098 87.7654 55.8058V55.6498ZM94.0834 46.7968C94.0921 46.8661 94.1094 46.9311 94.1354 46.9918C94.1701 47.0438 94.2351 47.0741 94.3304 47.0828C94.4084 47.0915 94.5254 47.1088 94.6814 47.1348C94.8374 47.1521 95.0541 47.1608 95.3314 47.1608C96.0941 47.1608 96.7224 47.0438 97.2164 46.8098C97.7104 46.5758 98.1004 46.2638 98.3864 45.8738C98.6724 45.4751 98.8674 45.0201 98.9714 44.5088C99.0841 43.9975 99.1404 43.4645 99.1404 42.9098C99.1404 42.3291 99.0494 41.7788 98.8674 41.2588C98.6854 40.7388 98.4298 40.2881 98.1004 39.9068C97.7798 39.5255 97.3898 39.2221 96.9304 38.9968C96.4798 38.7715 95.9814 38.6588 95.4354 38.6588C95.3141 38.6588 95.2187 38.6631 95.1494 38.6718C95.0801 38.6718 95.0107 38.6761 94.9414 38.6848C94.8807 38.6848 94.8071 38.6891 94.7204 38.6978C94.6424 38.6978 94.5297 38.7021 94.3824 38.7108C94.3304 38.7108 94.2611 38.7238 94.1744 38.7498C94.0964 38.7671 94.0574 38.8235 94.0574 38.9188V46.4068L94.0834 46.7968Z" fill="white"/>
<path d="M70.7688 56.3258C70.6994 56.3258 70.6648 56.2825 70.6648 56.1958V55.6498C70.6648 55.6412 70.6691 55.6238 70.6778 55.5978C70.6864 55.5632 70.7168 55.5458 70.7688 55.5458C71.0634 55.5458 71.3364 55.5025 71.5878 55.4158C71.8478 55.3292 72.0731 55.2122 72.2638 55.0648C72.4544 54.9175 72.6061 54.7398 72.7188 54.5318C72.8315 54.3238 72.8878 54.0985 72.8878 53.8558V40.6478C72.8878 40.2145 72.8445 39.8765 72.7578 39.6338C72.6711 39.3825 72.5411 39.1961 72.3678 39.0748C72.2031 38.9448 71.9908 38.8668 71.7308 38.8408C71.4794 38.8061 71.1848 38.7888 70.8468 38.7888H70.2618C70.1664 38.7888 70.0971 38.7368 70.0538 38.6328C70.0104 38.5201 69.9888 38.4248 69.9888 38.3468C69.9888 38.3034 69.9974 38.2384 70.0148 38.1518C70.0321 38.0651 70.0798 38.0131 70.1578 37.9958C70.1664 37.9958 70.1924 37.9958 70.2358 37.9958C70.2878 37.9958 70.3744 37.9958 70.4958 37.9958C70.6171 37.9871 70.7774 37.9828 70.9768 37.9828C71.1848 37.9741 71.4534 37.9654 71.7828 37.9568C72.2594 37.9481 72.7664 37.9351 73.3038 37.9178C73.8498 37.9004 74.4001 37.8831 74.9548 37.8658C75.5095 37.8484 76.0555 37.8354 76.5928 37.8268C77.1388 37.8094 77.6501 37.8008 78.1268 37.8008H79.9598C80.6532 37.8008 81.3292 37.9178 81.9878 38.1518C82.6465 38.3858 83.2315 38.7325 83.7428 39.1918C84.2542 39.6425 84.6658 40.2058 84.9778 40.8818C85.2898 41.5578 85.4458 42.3378 85.4458 43.2218C85.4458 43.7765 85.3635 44.3095 85.1988 44.8208C85.0342 45.3235 84.8088 45.7871 84.5228 46.2118C84.2455 46.6365 83.9205 47.0221 83.5478 47.3688C83.1838 47.7068 82.7982 47.9928 82.3908 48.2268C81.9922 48.4608 81.5848 48.6385 81.1688 48.7598C80.8048 48.8551 80.4625 48.9028 80.1418 48.9028C80.0898 48.9028 80.0422 48.9028 79.9988 48.9028L76.8918 48.7468C76.8831 48.7468 76.8485 48.7468 76.7878 48.7468C76.7271 48.7468 76.6838 48.7555 76.6578 48.7728C76.6318 48.7901 76.6145 48.8075 76.6058 48.8248C76.5971 48.8421 76.5928 48.8768 76.5928 48.9288V53.8168C76.5928 54.1548 76.6838 54.4365 76.8658 54.6618C77.0565 54.8785 77.2991 55.0518 77.5938 55.1818C77.8971 55.3118 78.2351 55.4072 78.6078 55.4678C78.9805 55.5198 79.3488 55.5458 79.7128 55.5458C79.7648 55.5458 79.7952 55.5588 79.8038 55.5848C79.8125 55.6108 79.8168 55.6325 79.8168 55.6498V56.2218C79.8168 56.2392 79.8082 56.2608 79.7908 56.2868C79.7822 56.3128 79.7562 56.3258 79.7128 56.3258H70.7688ZM76.6188 47.2778C76.6275 47.3471 76.6448 47.4121 76.6708 47.4728C76.7055 47.5248 76.7705 47.5551 76.8658 47.5638C76.9005 47.5638 76.9611 47.5681 77.0478 47.5768C77.1431 47.5855 77.2515 47.5941 77.3728 47.6028C77.4941 47.6115 77.6241 47.6201 77.7628 47.6288C77.9101 47.6375 78.0531 47.6418 78.1918 47.6418C78.7725 47.6418 79.2795 47.5248 79.7128 47.2908C80.1548 47.0568 80.5188 46.7318 80.8048 46.3158C81.0995 45.8911 81.3162 45.3928 81.4548 44.8208C81.6022 44.2401 81.6758 43.6031 81.6758 42.9098C81.6758 41.4798 81.3898 40.4311 80.8178 39.7638C80.2458 39.0965 79.4051 38.7628 78.2958 38.7628C78.1745 38.7628 78.0618 38.7671 77.9578 38.7758C77.8538 38.7758 77.7498 38.7801 77.6458 38.7888C77.5418 38.7888 77.4291 38.7931 77.3078 38.8018C77.1951 38.8018 77.0651 38.8061 76.9178 38.8148C76.8658 38.8148 76.7965 38.8278 76.7098 38.8538C76.6318 38.8711 76.5928 38.9275 76.5928 39.0228V46.8878L76.6188 47.2778Z" fill="white"/>
<path d="M188.456 23.2791C188.456 23.2271 188.443 23.1838 188.417 23.1491L183.099 14.6471C182.952 14.4131 182.792 14.1791 182.618 13.9451C182.454 13.7024 182.267 13.4771 182.059 13.2691C181.86 13.0524 181.639 12.8661 181.396 12.7101C181.162 12.5454 180.907 12.4284 180.629 12.3591C180.586 12.3504 180.517 12.3374 180.421 12.3201C180.326 12.2941 180.226 12.2724 180.122 12.2551C180.018 12.2378 179.919 12.2204 179.823 12.2031C179.728 12.1858 179.659 12.1728 179.615 12.1641C179.529 12.1554 179.446 12.1034 179.368 12.0081C179.29 11.9041 179.251 11.8131 179.251 11.7351C179.251 11.7178 179.251 11.6874 179.251 11.6441C179.26 11.6008 179.269 11.5618 179.277 11.5271C179.295 11.4838 179.316 11.4491 179.342 11.4231C179.368 11.3884 179.403 11.3711 179.446 11.3711H188.274C188.369 11.3711 188.43 11.4144 188.456 11.5011C188.482 11.5878 188.495 11.6658 188.495 11.7351C188.495 11.8218 188.486 11.9128 188.469 12.0081C188.46 12.1034 188.412 12.1511 188.326 12.1511C188.092 12.1684 187.871 12.1858 187.663 12.2031C187.455 12.2204 187.277 12.2638 187.13 12.3331C186.982 12.3938 186.865 12.4891 186.779 12.6191C186.692 12.7491 186.649 12.9311 186.649 13.1651C186.649 13.3731 186.701 13.5594 186.805 13.7241L190.77 20.0941C190.865 20.2415 190.926 20.3325 190.952 20.3671C190.986 20.4018 191.038 20.4191 191.108 20.4191C191.168 20.4191 191.22 20.3845 191.264 20.3151C191.316 20.2458 191.376 20.1548 191.446 20.0421L194.579 14.7251C194.7 14.5258 194.821 14.3048 194.943 14.0621C195.073 13.8194 195.138 13.5724 195.138 13.3211C195.138 13.0784 195.103 12.8878 195.034 12.7491C194.973 12.6018 194.878 12.4891 194.748 12.4111C194.618 12.3331 194.457 12.2768 194.267 12.2421C194.085 12.2074 193.872 12.1771 193.63 12.1511C193.534 12.1424 193.478 12.0904 193.461 11.9951C193.443 11.8998 193.435 11.8131 193.435 11.7351C193.435 11.6744 193.443 11.6008 193.461 11.5141C193.487 11.4188 193.552 11.3711 193.656 11.3711H200.195C200.264 11.3711 200.312 11.4231 200.338 11.5271C200.364 11.6224 200.377 11.6918 200.377 11.7351C200.377 11.8218 200.346 11.8954 200.286 11.9561C200.234 12.0168 200.164 12.0688 200.078 12.1121C200 12.1468 199.913 12.1771 199.818 12.2031C199.731 12.2204 199.649 12.2378 199.571 12.2551C199.137 12.3504 198.76 12.5108 198.44 12.7361C198.128 12.9528 197.82 13.2258 197.517 13.5551C197.473 13.5984 197.408 13.6678 197.322 13.7631C197.244 13.8584 197.2 13.9148 197.192 13.9321L192.161 22.5771V27.1661C192.161 27.6861 192.295 28.0891 192.564 28.3751C192.832 28.6611 193.309 28.8388 193.994 28.9081C194.089 28.9168 194.21 28.9211 194.358 28.9211C194.505 28.9211 194.631 28.9211 194.735 28.9211C194.778 28.9211 194.804 28.9341 194.813 28.9601C194.83 28.9861 194.839 29.0078 194.839 29.0251V29.5971C194.839 29.6145 194.83 29.6361 194.813 29.6621C194.804 29.6881 194.778 29.7011 194.735 29.7011H185.881C185.838 29.7011 185.808 29.6881 185.79 29.6621C185.782 29.6361 185.777 29.6145 185.777 29.5971V29.0251C185.777 29.0078 185.782 28.9861 185.79 28.9601C185.808 28.9341 185.838 28.9211 185.881 28.9211C185.977 28.9211 186.098 28.9211 186.246 28.9211C186.402 28.9211 186.527 28.9168 186.623 28.9081C187.307 28.8388 187.784 28.6611 188.053 28.3751C188.321 28.0891 188.456 27.6861 188.456 27.1661V23.2791Z" fill="white"/>
<path d="M152.893 29.0251C152.893 29.0078 152.897 28.9861 152.906 28.9601C152.923 28.9341 152.954 28.9211 152.997 28.9211C153.569 28.9211 154.011 28.8561 154.323 28.7261C154.644 28.5875 154.878 28.4011 155.025 28.1671C155.181 27.9245 155.276 27.6385 155.311 27.3091C155.346 26.9798 155.372 26.6245 155.389 26.2431C155.441 25.1251 155.502 24.0418 155.571 22.9931C155.649 21.9358 155.723 20.9001 155.792 19.8861C155.861 18.8634 155.922 17.8538 155.974 16.8571C156.026 15.8604 156.052 14.8594 156.052 13.8541V13.3731C156.052 13.1738 155.987 13.0004 155.857 12.8531C155.727 12.6971 155.571 12.5671 155.389 12.4631C155.216 12.3591 155.038 12.2811 154.856 12.2291C154.674 12.1771 154.531 12.1511 154.427 12.1511C154.358 12.1511 154.323 12.1164 154.323 12.0471V11.4751C154.323 11.4578 154.327 11.4361 154.336 11.4101C154.345 11.3841 154.375 11.3711 154.427 11.3711H159.029C159.124 11.3884 159.202 11.4231 159.263 11.4751C159.324 11.5184 159.38 11.5791 159.432 11.6571L165.087 24.2671C165.148 24.4145 165.226 24.4881 165.321 24.4881C165.416 24.4881 165.486 24.4665 165.529 24.4231C165.572 24.3798 165.607 24.3235 165.633 24.2541L171.223 11.8911C171.31 11.7264 171.396 11.6008 171.483 11.5141C171.57 11.4188 171.656 11.3711 171.743 11.3711H176.319C176.371 11.3711 176.402 11.3841 176.41 11.4101C176.419 11.4361 176.423 11.4578 176.423 11.4751V12.0471C176.423 12.0644 176.415 12.0861 176.397 12.1121C176.389 12.1381 176.363 12.1511 176.319 12.1511C176.302 12.1511 176.198 12.1684 176.007 12.2031C175.825 12.2378 175.622 12.3071 175.396 12.4111C175.18 12.5064 174.98 12.6494 174.798 12.8401C174.616 13.0221 174.525 13.2648 174.525 13.5681L175.279 27.4131C175.288 27.6645 175.353 27.8768 175.474 28.0501C175.604 28.2235 175.76 28.3665 175.942 28.4791C176.124 28.5918 176.315 28.6785 176.514 28.7391C176.722 28.7911 176.913 28.8345 177.086 28.8691C177.268 28.8951 177.42 28.9125 177.541 28.9211C177.671 28.9211 177.741 28.9211 177.749 28.9211C177.793 28.9211 177.819 28.9341 177.827 28.9601C177.845 28.9861 177.853 29.0078 177.853 29.0251V29.5971C177.853 29.6145 177.845 29.6361 177.827 29.6621C177.819 29.6881 177.793 29.7011 177.749 29.7011H169.195C169.126 29.7011 169.091 29.6665 169.091 29.5971V29.0251C169.091 28.9558 169.126 28.9211 169.195 28.9211C169.403 28.9211 169.637 28.9125 169.897 28.8951C170.166 28.8691 170.421 28.8171 170.664 28.7391C170.907 28.6611 171.11 28.5485 171.275 28.4011C171.44 28.2451 171.522 28.0415 171.522 27.7901L170.924 17.1691C170.915 17.0824 170.894 17.0391 170.859 17.0391C170.824 17.0391 170.79 17.0781 170.755 17.1561L165.061 29.4801C165.018 29.5755 164.957 29.6361 164.879 29.6621C164.81 29.6881 164.684 29.7011 164.502 29.7011C164.19 29.7011 163.956 29.6925 163.8 29.6751C163.653 29.6578 163.553 29.5885 163.501 29.4671L157.963 17.2601C157.937 17.1994 157.915 17.1561 157.898 17.1301C157.889 17.0954 157.868 17.0781 157.833 17.0781C157.772 17.0781 157.742 17.1344 157.742 17.2471C157.742 17.5071 157.729 17.8884 157.703 18.3911C157.677 18.8938 157.642 19.4614 157.599 20.0941C157.556 20.7181 157.512 21.3811 157.469 22.0831C157.426 22.7851 157.382 23.4655 157.339 24.1241C157.296 24.7828 157.261 25.3981 157.235 25.9701C157.209 26.5335 157.196 26.9971 157.196 27.3611V27.8941C157.231 28.0588 157.317 28.2061 157.456 28.3361C157.595 28.4661 157.768 28.5745 157.976 28.6611C158.184 28.7478 158.414 28.8128 158.665 28.8561C158.916 28.8995 159.181 28.9211 159.458 28.9211C159.501 28.9211 159.523 28.9341 159.523 28.9601C159.532 28.9861 159.536 29.0078 159.536 29.0251V29.5971C159.536 29.6665 159.51 29.7011 159.458 29.7011H152.997C152.928 29.7011 152.893 29.6665 152.893 29.5971V29.0251Z" fill="white"/>
<path d="M121.695 29.7009C121.643 29.7009 121.613 29.6879 121.604 29.6619C121.596 29.6272 121.591 29.6056 121.591 29.5969V29.0379C121.591 29.0292 121.596 29.0119 121.604 28.9859C121.613 28.9512 121.643 28.9339 121.695 28.9339H121.981C122.163 28.9339 122.389 28.9252 122.657 28.9079C122.926 28.8819 123.186 28.8212 123.437 28.7259C123.689 28.6219 123.901 28.4702 124.074 28.2709C124.256 28.0629 124.347 27.7812 124.347 27.4259V13.5679C124.347 13.2992 124.287 13.0738 124.165 12.8918C124.053 12.7012 123.905 12.5495 123.723 12.4368C123.55 12.3155 123.355 12.2288 123.138 12.1768C122.922 12.1248 122.718 12.0988 122.527 12.0988H121.695C121.643 12.0988 121.613 12.0858 121.604 12.0598C121.596 12.0252 121.591 12.0035 121.591 11.9948V11.4358C121.591 11.4272 121.596 11.4098 121.604 11.3838C121.613 11.3492 121.643 11.3318 121.695 11.3318H121.981L127.324 11.2408C127.827 11.2322 128.369 11.2278 128.949 11.2278C129.539 11.2192 130.085 11.2148 130.587 11.2148C131.133 11.2148 131.623 11.2235 132.056 11.2408C132.49 11.2495 132.906 11.2755 133.304 11.3188C133.703 11.3535 134.106 11.4012 134.513 11.4618C134.921 11.5225 135.376 11.6048 135.878 11.7088C136.84 11.9082 137.733 12.2765 138.556 12.8138C139.388 13.3512 140.103 14.0012 140.701 14.7639C141.308 15.5265 141.78 16.3715 142.118 17.2989C142.465 18.2262 142.638 19.1752 142.638 20.1459C142.638 21.0819 142.508 21.9702 142.248 22.8109C141.988 23.6429 141.624 24.4142 141.156 25.1249C140.697 25.8269 140.147 26.4639 139.505 27.0359C138.873 27.5992 138.175 28.0802 137.412 28.4789C136.65 28.8689 135.839 29.1722 134.981 29.3889C134.123 29.5969 133.244 29.7009 132.342 29.7009H122.072H121.695ZM128.052 27.6859C128.052 27.9372 128.13 28.1322 128.286 28.2709C128.451 28.4096 128.663 28.5136 128.923 28.5829C129.192 28.6436 129.504 28.6782 129.859 28.6869C130.215 28.6956 130.587 28.6999 130.977 28.6999C133.551 28.6999 135.48 27.9892 136.762 26.5679C138.054 25.1465 138.699 23.0752 138.699 20.3539C138.699 19.1579 138.552 18.0615 138.257 17.0649C137.971 16.0682 137.529 15.2102 136.931 14.4909C136.342 13.7715 135.597 13.2125 134.695 12.8138C133.803 12.4152 132.745 12.2158 131.523 12.2158H128.377C128.247 12.2158 128.161 12.2462 128.117 12.3068C128.074 12.3588 128.052 12.4455 128.052 12.5668V27.6209V27.6859Z" fill="white"/>
<path d="M97.977 29.7011C97.9597 29.7011 97.938 29.6925 97.912 29.6751C97.886 29.6491 97.873 29.6231 97.873 29.5971V29.0251C97.873 28.9558 97.9077 28.9211 97.977 28.9211C98.0724 28.9211 98.1807 28.9211 98.302 28.9211C98.4234 28.9211 98.5404 28.9168 98.6531 28.9081C98.7744 28.8995 98.8827 28.8908 98.9781 28.8821C99.0734 28.8735 99.1471 28.8561 99.1991 28.8301C99.4157 28.7261 99.5934 28.5875 99.7321 28.4141C99.8707 28.2408 99.9747 28.0415 100.044 27.8161C100.122 27.5908 100.174 27.3438 100.2 27.0751C100.226 26.8065 100.239 26.5205 100.239 26.2171V13.2301C100.239 12.9961 100.144 12.8098 99.9531 12.6711C99.7711 12.5238 99.5544 12.4154 99.3031 12.3461C99.0604 12.2681 98.8091 12.2161 98.5491 12.1901C98.2977 12.1641 98.107 12.1511 97.977 12.1511C97.9337 12.1511 97.9034 12.1381 97.886 12.1121C97.8774 12.0861 97.873 12.0644 97.873 12.0471V11.4751C97.873 11.4578 97.8774 11.4361 97.886 11.4101C97.9034 11.3841 97.9337 11.3711 97.977 11.3711H103.866L115.072 23.7731C115.115 23.8165 115.146 23.8511 115.163 23.8771C115.18 23.8945 115.202 23.9031 115.228 23.9031C115.263 23.9031 115.284 23.8901 115.293 23.8641C115.302 23.8381 115.306 23.8121 115.306 23.7861V16.0641C115.306 15.2061 115.276 14.5214 115.215 14.0101C115.154 13.4901 115.042 13.0958 114.877 12.8271C114.712 12.5498 114.491 12.3678 114.214 12.2811C113.937 12.1944 113.581 12.1511 113.148 12.1511H112.485C112.442 12.1511 112.411 12.1381 112.394 12.1121C112.385 12.0861 112.381 12.0644 112.381 12.0471V11.4751C112.381 11.4578 112.385 11.4361 112.394 11.4101C112.411 11.3841 112.442 11.3711 112.485 11.3711H119.635C119.687 11.3711 119.717 11.3841 119.726 11.4101C119.735 11.4361 119.739 11.4578 119.739 11.4751V12.0471C119.739 12.0644 119.73 12.0861 119.713 12.1121C119.704 12.1381 119.678 12.1511 119.635 12.1511C119.462 12.1511 119.236 12.1858 118.959 12.2551C118.69 12.3244 118.426 12.4241 118.166 12.5541C117.906 12.6841 117.681 12.8444 117.49 13.0351C117.308 13.2258 117.217 13.4424 117.217 13.6851V29.0641C117.217 29.2115 117.182 29.3371 117.113 29.4411C117.044 29.5365 116.953 29.6145 116.84 29.6751C116.736 29.7358 116.619 29.7791 116.489 29.8051C116.368 29.8398 116.255 29.8571 116.151 29.8571C115.978 29.8571 115.774 29.8181 115.54 29.7401C115.315 29.6708 115.089 29.5105 114.864 29.2591L102.592 15.6481C102.531 15.5874 102.488 15.5528 102.462 15.5441C102.436 15.5268 102.401 15.5181 102.358 15.5181C102.315 15.5181 102.293 15.5614 102.293 15.6481V27.2571C102.293 27.4998 102.349 27.7121 102.462 27.8941C102.583 28.0675 102.735 28.2191 102.917 28.3491C103.099 28.4705 103.298 28.5701 103.515 28.6481C103.74 28.7175 103.957 28.7738 104.165 28.8171C104.382 28.8605 104.572 28.8908 104.737 28.9081C104.91 28.9168 105.04 28.9211 105.127 28.9211C105.17 28.9211 105.201 28.9385 105.218 28.9731C105.227 28.9905 105.231 29.0078 105.231 29.0251V29.5971C105.231 29.6145 105.222 29.6361 105.205 29.6621C105.196 29.6881 105.17 29.7011 105.127 29.7011H97.977Z" fill="white"/>
<path d="M93.0059 27.2311C93.0059 27.5258 93.0492 27.7728 93.1359 27.9721C93.2312 28.1715 93.3612 28.3318 93.5259 28.4531C93.6992 28.5745 93.9072 28.6611 94.1499 28.7131C94.4012 28.7651 94.6785 28.7911 94.9819 28.7911C95.0512 28.7911 95.0859 28.8258 95.0859 28.8951V29.5971C95.0859 29.6231 95.0815 29.6491 95.0729 29.6751C95.0642 29.6925 95.0339 29.7011 94.9819 29.7011H87.2988C87.2555 29.7011 87.2252 29.6881 87.2078 29.6621C87.1992 29.6361 87.1948 29.6145 87.1948 29.5971V28.8951C87.1948 28.8778 87.1992 28.8561 87.2078 28.8301C87.2252 28.8041 87.2555 28.7911 87.2988 28.7911C87.6022 28.7911 87.8752 28.7738 88.1178 28.7391C88.3692 28.6958 88.5815 28.6091 88.7548 28.4791C88.9282 28.3491 89.0625 28.1628 89.1578 27.9201C89.2532 27.6775 89.3008 27.3481 89.3008 26.9321V13.8411C89.3008 13.5464 89.2532 13.2994 89.1578 13.1001C89.0712 12.9008 88.9412 12.7404 88.7678 12.6191C88.6032 12.4978 88.3952 12.4111 88.1438 12.3591C87.9012 12.3071 87.6282 12.2811 87.3248 12.2811C87.2555 12.2811 87.2208 12.2464 87.2208 12.1771V11.4751C87.2208 11.4058 87.2555 11.3711 87.3248 11.3711H95.0079C95.0512 11.3711 95.0772 11.3841 95.0859 11.4101C95.1032 11.4361 95.1119 11.4578 95.1119 11.4751V12.1771C95.1119 12.1944 95.1032 12.2161 95.0859 12.2421C95.0772 12.2681 95.0512 12.2811 95.0079 12.2811C94.7045 12.2811 94.4272 12.3028 94.1759 12.3461C93.9332 12.3808 93.7252 12.4631 93.5519 12.5931C93.3785 12.7231 93.2442 12.9094 93.1489 13.1521C93.0535 13.3948 93.0059 13.7241 93.0059 14.1401V27.2311Z" fill="white"/>
<path d="M81.013 19.0541C81.1343 19.0541 81.2946 19.0454 81.494 19.0281C81.6933 19.0021 81.884 18.9371 82.066 18.8331C82.2566 18.7204 82.417 18.5514 82.547 18.3261C82.6856 18.0921 82.755 17.7671 82.755 17.3511C82.755 17.2818 82.7896 17.2471 82.859 17.2471H83.366C83.4353 17.2471 83.47 17.2818 83.47 17.3511V22.5771C83.47 22.6205 83.457 22.6508 83.431 22.6681C83.405 22.6768 83.3833 22.6811 83.366 22.6811H82.859C82.8156 22.6811 82.7853 22.6681 82.768 22.6421C82.7593 22.6161 82.755 22.5945 82.755 22.5771C82.755 22.1091 82.6856 21.7495 82.547 21.4981C82.417 21.2381 82.261 21.0475 82.079 20.9261C81.897 20.8048 81.7063 20.7355 81.507 20.7181C81.3163 20.6921 81.1603 20.6791 81.039 20.6791H76.6969C76.5929 20.6791 76.5149 20.7138 76.4629 20.7831C76.4109 20.8438 76.3849 20.9261 76.3849 21.0301V27.2571C76.3849 27.4911 76.4283 27.6905 76.5149 27.8551C76.6103 28.0111 76.7359 28.1498 76.8919 28.2711C77.0566 28.3838 77.2473 28.4835 77.4639 28.5701C77.6806 28.6568 77.919 28.7391 78.179 28.8171C78.309 28.8605 78.4476 28.8995 78.595 28.9341C78.7423 28.9688 78.8636 28.9861 78.959 28.9861C79.011 28.9861 79.0413 29.0035 79.05 29.0381C79.0586 29.0641 79.063 29.0815 79.063 29.0901V29.5971C79.063 29.6145 79.0543 29.6361 79.037 29.6621C79.0283 29.6881 79.0023 29.7011 78.959 29.7011H70.6909C70.6476 29.7011 70.6172 29.6881 70.5999 29.6621C70.5912 29.6361 70.5869 29.6145 70.5869 29.5971V29.0901C70.5869 29.0728 70.5912 29.0511 70.5999 29.0251C70.6086 28.9991 70.6389 28.9861 70.6909 28.9861C70.7862 28.9861 70.9076 28.9688 71.0549 28.9341C71.2109 28.8908 71.3279 28.8518 71.4059 28.8171C71.7786 28.6525 72.0819 28.4358 72.3159 28.1671C72.5586 27.8898 72.6799 27.5561 72.6799 27.1661V13.3211C72.6799 12.9918 72.5889 12.7318 72.4069 12.5411C72.2249 12.3504 72.0169 12.2074 71.7829 12.1121C71.5576 12.0168 71.3409 11.9561 71.1329 11.9301C70.9336 11.9041 70.8079 11.8911 70.7559 11.8911H70.7039C70.6606 11.8911 70.6302 11.8781 70.6129 11.8521C70.6042 11.8261 70.5999 11.8044 70.5999 11.7871V11.4751C70.5999 11.4578 70.6042 11.4361 70.6129 11.4101C70.6302 11.3841 70.6606 11.3711 70.7039 11.3711H83.548C83.652 11.3884 83.73 11.4144 83.782 11.4491C83.834 11.4751 83.86 11.5488 83.86 11.6701V15.2061C83.86 15.3101 83.8296 15.3751 83.769 15.4011C83.7083 15.4271 83.639 15.4401 83.561 15.4401H83.301C83.2836 15.4314 83.2576 15.3578 83.223 15.2191C83.197 15.0718 83.158 14.9028 83.106 14.7121C83.054 14.5128 82.989 14.3178 82.911 14.1271C82.8416 13.9278 82.7593 13.7718 82.664 13.6591C82.5426 13.5291 82.4256 13.4208 82.313 13.3341C82.2003 13.2474 82.0746 13.1781 81.936 13.1261C81.7973 13.0741 81.637 13.0394 81.455 13.0221C81.273 13.0048 81.052 12.9961 80.792 12.9961H76.6449C76.4716 12.9961 76.3849 13.0828 76.3849 13.2561V18.7551C76.3849 18.9544 76.4889 19.0541 76.6969 19.0541H81.013Z" fill="white"/>
</svg>
