<svg width="74" height="19" viewBox="0 0 74 19" fill="none" xmlns="http://www.w3.org/2000/svg">
<g clip-path="url(#clip0_3066_2844)">
<path fill-rule="evenodd" clip-rule="evenodd" d="M18.3867 18.0996C17.2729 17.9702 16.2238 17.5358 15.3692 16.8502C14.5146 16.1646 13.892 15.258 13.5783 14.2423C13.0422 12.5873 13.0422 10.8191 13.5783 9.16408C14.1039 7.68114 15.2239 6.45071 16.6991 5.7358C17.7378 5.28143 18.8733 5.05754 20.0181 5.08134C21.163 5.10513 22.2869 5.376 23.3034 5.87308C24.956 6.77308 25.9562 8.38033 26.2347 10.5726C26.3112 11.4624 26.2762 12.3575 26.1305 13.2396C25.929 14.34 25.401 15.3641 24.6077 16.1934C23.8143 17.0227 22.788 17.6233 21.6475 17.9256C21.362 18.0002 21.0721 18.0593 20.7794 18.1026C19.9819 18.1645 19.1803 18.1645 18.3828 18.1026L18.3867 18.0996ZM20.3163 17.1403C20.7874 16.956 21.1735 16.6197 21.4056 16.1916C21.9173 15.2841 22.1456 13.9416 22.1512 11.8071C22.1584 9.13332 21.7072 7.43231 20.7547 6.54206C20.6096 6.37888 20.4263 6.24971 20.2192 6.16473C20.012 6.07974 19.7868 6.04123 19.5612 6.0523C18.4257 6.0523 17.7056 7.15407 17.4208 9.32082C17.2901 10.7314 17.2901 12.15 17.4208 13.5606C17.8242 16.2561 18.865 17.5415 20.3187 17.1403H20.3163ZM41.2352 18.0988C40.7077 18.0493 39.0948 17.7988 38.5299 17.6818L38.14 17.5993L38.1702 15.6666C38.2434 11.0128 38.2498 8.47333 38.2052 6.00208C38.1591 3.58258 38.1455 3.3268 38.0461 2.9683C37.9809 2.61615 37.794 2.29424 37.5146 2.05259C37.3519 1.96922 37.1771 1.90882 36.9958 1.87333C36.3329 1.73533 36.3695 1.75707 36.3512 1.47732C36.328 1.37456 36.347 1.2673 36.4045 1.1773C36.4642 1.1338 41.8949 0.170835 42.0707 0.173835C42.1562 1.1273 42.1665 2.08539 42.1018 3.04031C42.0843 4.6153 42.0819 5.90531 42.097 5.90531C42.1121 5.90531 42.311 5.82506 42.5378 5.72756C43.2406 5.42992 44.0025 5.27655 44.7729 5.27758C45.1763 5.24654 45.5822 5.26419 45.9808 5.33008C48.0297 5.72383 49.5463 7.28007 50.0762 9.53757C50.2267 10.4581 50.2596 11.3922 50.1741 12.32C50.0795 13.0075 49.9006 13.6823 49.641 14.3308C49.2063 15.3445 48.4885 16.2283 47.5639 16.8886C46.6393 17.5488 45.5424 17.9608 44.3894 18.0808C43.3404 18.1642 42.286 18.1699 41.236 18.0981L41.2352 18.0988ZM43.3677 17.1163C43.7465 17.0526 44.0973 16.8857 44.3767 16.6363C45.3605 15.5814 45.9427 14.2472 46.0309 12.8451C46.1262 11.883 46.1182 10.9144 46.007 9.95382C45.7158 8.36757 45.0888 7.3288 44.1769 6.9058C43.9104 6.7548 43.5991 6.68931 43.2897 6.71908C43.0083 6.71384 42.7275 6.74639 42.4558 6.8158L42.1033 6.9118L42.0771 8.71708C42.0437 11.0301 42.1248 16.817 42.1925 16.9858C42.2362 17.0923 42.284 17.1148 42.4996 17.1313C42.7888 17.1728 43.0835 17.1677 43.3709 17.1163H43.3677ZM56.5302 18.0748C55.2614 17.8772 54.0877 17.317 53.1678 16.47C52.2479 15.6231 51.6262 14.5302 51.3868 13.3393C51.2923 12.8749 51.2473 12.4029 51.2523 11.9301C51.1904 11.0177 51.3197 10.1028 51.6326 9.23756C51.8819 8.46525 52.2988 7.75021 52.8569 7.13784C53.4149 6.52547 54.1019 6.02914 54.8743 5.68032C55.7115 5.30989 56.6215 5.10827 57.5461 5.08839C58.4707 5.0685 59.3895 5.23078 60.2437 5.56483C61.8884 6.32983 62.8568 7.85833 63.1026 10.0783C63.1338 10.3405 63.1479 10.6042 63.1448 10.8681L63.1273 11.1156L59.1902 11.1276L55.2539 11.1411L55.269 11.5723C55.2827 12.4959 55.5203 13.4043 55.9636 14.228C56.1472 14.5641 56.3933 14.8664 56.6901 15.1206C57.0784 15.5035 57.5514 15.8013 58.0754 15.9926C58.5995 16.1839 59.1618 16.2641 59.7225 16.2276C60.5684 16.2591 61.4039 16.0438 62.1152 15.611C62.2563 15.5161 62.4108 15.4404 62.5743 15.3861C62.6656 15.4296 62.7458 15.4915 62.8091 15.5672C62.8725 15.643 62.9175 15.7309 62.9411 15.8248C62.5688 16.3996 62.0488 16.8768 61.4293 17.2123C60.6893 17.6412 59.8699 17.9344 59.0143 18.0763C58.1881 18.1723 57.3524 18.1723 56.5262 18.0763L56.5302 18.0748ZM58.2011 10.0236L59.1265 9.99282L59.0931 9.3823C58.9754 7.22905 58.408 6.05306 57.4882 6.05381C56.488 6.05381 55.6883 7.24857 55.3565 9.23907C55.3191 9.45238 55.2938 9.66745 55.2809 9.88332V10.0828L56.2787 10.0678C56.827 10.0588 57.6927 10.0393 58.2019 10.0236H58.2011ZM67.1703 18.1236C66.165 18.0193 65.1737 17.8182 64.2118 17.5236L63.9668 17.4261L63.9333 16.3011C63.915 15.6808 63.8936 14.8506 63.8864 14.4576L63.8721 13.7421L64.0193 13.6761C64.1353 13.6332 64.2577 13.6078 64.3821 13.601L64.5978 13.5928L64.7816 14.0128C65.4977 15.6508 66.3387 16.5343 67.4368 16.8028C67.935 16.9043 68.4504 16.9043 68.9486 16.8028C69.3456 16.6969 69.6937 16.4692 69.938 16.1558C70.1823 15.8425 70.3087 15.4613 70.2973 15.0726C70.3029 14.0848 69.7181 13.6101 67.5124 12.8091C66.608 12.5692 65.7792 12.1254 65.0975 11.5161C64.4866 10.9398 64.1408 10.1602 64.1347 9.34559C64.0916 8.81897 64.1716 8.28986 64.3692 7.7956C64.5668 7.30134 64.877 6.85395 65.2781 6.48507C66.1958 5.64448 67.4127 5.15599 68.6916 5.1148C70.1717 5.02575 71.6557 5.21599 73.0568 5.67432L73.2486 5.7493L73.2828 6.75584C73.3011 7.30859 73.321 8.0503 73.3258 8.4058L73.3345 9.04781L73.0775 9.13708C72.6701 9.27733 72.6431 9.2593 72.4163 8.7028C71.7797 7.1398 71.0437 6.40105 69.8947 6.1753C69.5944 6.09665 69.2773 6.09535 68.9763 6.17145C68.6752 6.24756 68.4014 6.39832 68.1832 6.60807C68.0266 6.75318 67.9024 6.92633 67.8178 7.11733C67.7332 7.30834 67.69 7.51332 67.6906 7.7203C67.6562 7.93368 67.6763 8.15173 67.7491 8.35636C67.8218 8.56099 67.9453 8.74634 68.1092 8.89707C68.8492 9.51193 69.7161 9.97591 70.6554 10.2598C72.3805 10.9303 73.2016 11.4981 73.6512 12.3291C73.9472 12.8854 74.0666 13.5104 73.995 14.1291C74.0122 14.5272 73.9457 14.9245 73.7992 15.2983C73.5377 15.9823 73.0905 16.5898 72.5021 17.06C71.9138 17.5302 71.2048 17.8468 70.4461 17.978C69.8467 18.1263 69.2255 18.181 68.6073 18.1401C67.9341 18.1393 67.288 18.1348 67.1703 18.1236ZM0.0713485 17.8236C0.00211384 17.7129 -0.0216664 17.5821 0.00451009 17.4561C0.00451009 17.0466 -0.02334 17.0646 0.828854 16.9183C1.05843 16.91 1.28315 16.8535 1.4867 16.7531C1.69026 16.6527 1.86754 16.5109 2.00569 16.3378C2.56268 15.6568 2.68681 14.3443 2.68761 8.93983C2.68761 3.86383 2.58337 2.7958 2.0041 2.0113C1.83056 1.81692 1.61381 1.66089 1.36919 1.55422C1.12458 1.44756 0.858076 1.39287 0.588554 1.39405L0.0315642 1.33184L0.0164451 0.926811L-0.000264516 0.525581L0.17479 0.495551C0.27107 0.480551 3.65279 0.473815 7.69017 0.481315L15.0305 0.495551L15.0647 0.692802C15.0838 0.800802 15.1148 1.91684 15.1339 3.16784L15.1689 5.44782L14.7902 5.55357C14.2205 5.71482 14.2236 5.71706 13.9674 5.08706C13.338 3.54056 12.6147 2.64955 11.6281 2.1988C10.947 1.88905 10.6319 1.85158 8.70786 1.85158H7.0369L7.00825 2.11031C6.95414 2.59781 6.869 5.72531 6.869 7.19831V8.66833H7.36075C7.63128 8.66833 8.16519 8.64808 8.54713 8.62708C8.88376 8.63825 9.21911 8.58253 9.53141 8.46357C9.86374 8.28561 10.1481 8.03793 10.3626 7.73971C10.577 7.44148 10.7157 7.10068 10.7679 6.7438L10.8952 6.27505L11.3297 6.26081L11.7641 6.2458V12.1821L11.3297 12.1678L10.8952 12.1536L10.7719 11.6841C10.716 11.3267 10.5768 10.9854 10.3644 10.6847C10.152 10.384 9.8716 10.1313 9.54335 9.9448C8.85534 9.78944 8.14813 9.72284 7.44111 9.74682L6.869 9.73034V10.8456C6.869 12.0613 6.94062 13.7046 7.03292 14.5956C7.16182 15.8398 7.50397 16.5268 8.11825 16.775C8.38734 16.8551 8.66348 16.9124 8.94339 16.9461C9.1813 16.9738 9.41687 17.0171 9.64838 17.0758C9.71261 17.1913 9.74689 17.3195 9.74841 17.4498C9.74993 17.5802 9.71865 17.709 9.65713 17.8258C9.55688 17.861 0.167628 17.8588 0.0721438 17.8258L0.0713485 17.8236ZM26.2968 17.8138C26.2284 17.6975 26.2093 17.5611 26.2435 17.4321L26.2594 17.0908L26.4456 17.0533C26.5482 17.0338 26.7678 16.9933 26.9341 16.9648C27.171 16.934 27.3919 16.835 27.5669 16.6814C27.7419 16.5279 27.8624 16.3272 27.9121 16.1068C28.1149 14.6484 28.1815 13.176 28.111 11.7065C28.111 8.4508 28.0418 7.68208 27.6877 7.24633C27.5945 7.12954 27.4746 7.03412 27.3368 6.96723C27.199 6.90034 27.0469 6.8637 26.892 6.86007C26.662 6.81882 26.4201 6.77531 26.3541 6.76256C26.2475 6.74231 26.2339 6.71006 26.2339 6.46781C26.2339 6.22556 26.2498 6.18955 26.3541 6.1498C26.5132 6.08905 31.7839 5.11104 31.9518 5.11104H32.0831L32.0576 5.8393C32.0433 6.24055 32.021 6.82405 32.0075 7.13605L31.9829 7.70455L32.1738 7.38508C32.6456 6.48884 33.4233 5.76802 34.3819 5.33832C34.8342 5.13425 35.3332 5.03942 35.834 5.06234C36.5669 5.06234 37.2997 5.2873 37.2997 5.50555C37.2997 5.65555 36.0083 8.82433 35.9367 8.84983C35.7423 8.80773 35.5549 8.74086 35.3797 8.65107C34.8749 8.4125 34.3195 8.28432 33.7549 8.27607C33.1576 8.25996 32.5729 8.43911 32.0998 8.78309C31.9781 8.90534 31.9773 8.91207 31.947 10.7271C31.9168 12.5271 31.9813 14.7171 32.0903 15.6021C32.0689 15.8632 32.1287 16.1246 32.2622 16.3543C32.3957 16.584 32.5972 16.7722 32.8422 16.8958C33.2996 16.9924 33.7649 17.0516 34.2331 17.0728C34.2694 17.1973 34.2783 17.3275 34.2593 17.4553L34.2442 17.8378L30.3071 17.8498C28.142 17.8566 26.339 17.8431 26.3016 17.8206L26.2968 17.8138Z" fill="#4A7E98"/>
</g>
<defs>
<clipPath id="clip0_3066_2844">
<rect width="74" height="18" fill="white" transform="translate(0 0.174805)"/>
</clipPath>
</defs>
</svg>
