<svg width="58" height="19" viewBox="0 0 58 19" fill="none" xmlns="http://www.w3.org/2000/svg">
<g clip-path="url(#clip0_3066_2846)">
<path fill-rule="evenodd" clip-rule="evenodd" d="M36.4935 14.0771V17.8451H26.0372V13.9953H28.028V13.8453C28.028 12.5498 28.028 11.2534 28.028 9.95586C28.0544 9.55704 27.9174 9.16358 27.644 8.85274C27.3705 8.54189 26.9804 8.33614 26.5502 8.27586C25.8649 8.11626 25.1399 8.18866 24.508 8.47984C24.138 8.64212 23.8169 8.88493 23.5724 9.18713C23.328 9.48934 23.1676 9.84179 23.1053 10.2139C23.0752 10.364 23.0596 10.5164 23.0588 10.6691C23.0588 11.7431 23.0588 12.8178 23.0588 13.8941V13.9931H25.0921V17.8496H14.4078V14.0006H16.3194V8.18211H14.4102V4.32632H22.8464V6.95132L22.8733 6.95961C22.9689 6.86511 23.067 6.77584 23.1584 6.67909C23.8928 5.87363 24.8394 5.25398 25.9081 4.87907C26.6502 4.63679 27.4274 4.49703 28.2142 4.46434C28.8823 4.42868 29.5526 4.44976 30.2165 4.52733C31.1043 4.61197 31.9628 4.86753 32.7358 5.27733C33.1997 5.52618 33.6035 5.85914 33.9227 6.25589C34.242 6.65264 34.4699 7.10488 34.5926 7.5851C34.7019 7.98304 34.7568 8.39193 34.756 8.80234V13.9901H36.4519C36.4475 13.9664 36.4409 13.9431 36.4323 13.9204C36.1517 13.3042 35.9762 12.6521 35.9119 11.9869C35.8184 11.128 35.8984 10.2607 36.148 9.4286C36.513 8.22679 37.2835 7.16208 38.3487 6.38736C39.1617 5.79275 40.0833 5.3356 41.0706 5.03732C41.8992 4.77915 42.7552 4.60195 43.6243 4.50861C44.415 4.42094 45.212 4.38932 46.008 4.41408C47.4157 4.43941 48.8008 4.74337 50.0688 5.30511C50.8753 5.66481 51.588 6.17973 52.1584 6.81487C52.7717 7.513 53.1936 8.336 53.3887 9.21483C53.4459 9.45333 53.4826 9.69857 53.5267 9.94157C53.5297 9.97477 53.5297 10.0082 53.5267 10.0414L47.7602 10.6121C47.7415 10.4149 47.7276 10.2251 47.7055 10.0361C47.67 9.51189 47.5135 9.00059 47.2464 8.5361C47.0963 8.2857 46.8805 8.07362 46.6187 7.91908C46.3568 7.76455 46.057 7.67246 45.7466 7.65111C45.2504 7.59448 44.7467 7.64588 44.2762 7.80112C43.9924 7.89951 43.7359 8.05424 43.5249 8.2543C43.3139 8.45437 43.1537 8.69479 43.0557 8.95834C42.8774 9.38811 42.7802 9.8426 42.7682 10.3023C42.7477 10.8783 42.7347 11.4543 42.7477 12.0273C42.7498 12.5566 42.8473 13.082 43.0361 13.5821C43.1704 13.9599 43.4266 14.2914 43.7708 14.5325C44.1149 14.7736 44.5308 14.913 44.9632 14.9321C45.4315 14.9895 45.908 14.9514 46.3584 14.8203C46.7265 14.7245 47.0575 14.5348 47.313 14.2733C47.5685 14.0118 47.738 13.6892 47.8019 13.3428C47.8338 13.1891 47.8444 13.0331 47.8656 12.8703H53.6231C53.5913 13.0811 53.5782 13.2904 53.5267 13.4906C53.3182 14.3797 52.8819 15.2104 52.254 15.9138C51.7188 16.493 51.0581 16.9635 50.3139 17.2954C49.4584 17.6717 48.5437 17.922 47.6034 18.0371C46.7382 18.1543 45.8635 18.202 44.9893 18.1796C43.5829 18.1585 42.1898 17.9267 40.8648 17.4933C40.066 17.2348 39.3128 16.8705 38.6289 16.4118C37.7407 15.8215 37.0231 15.0409 36.5385 14.1378C36.5246 14.1169 36.5096 14.0967 36.4935 14.0771ZM13.6734 17.8466H-0.00561523V13.9953H2.55782V4.32033H0.000106167V0.172852H13.6799V4.31511H11.11V13.9938H13.671V17.8496L13.6734 17.8466ZM53.1355 15.7159C53.1265 15.2711 53.2621 14.8341 53.5249 14.4604C53.7876 14.0867 54.1656 13.7934 54.6107 13.6177C55.0558 13.4421 55.5478 13.3922 56.0239 13.4744C56.5 13.5565 56.9387 13.767 57.284 14.079C57.6292 14.391 57.8655 14.7904 57.9625 15.2261C58.0596 15.6619 58.013 16.1143 57.8289 16.5257C57.6447 16.9371 57.3312 17.2888 56.9284 17.5359C56.5257 17.7831 56.0518 17.9145 55.5674 17.9133C54.9275 17.9179 54.3118 17.689 53.8558 17.2769C53.3997 16.8648 53.1407 16.3033 53.1355 15.7159Z" fill="#4A7E98"/>
</g>
<defs>
<clipPath id="clip0_3066_2846">
<rect width="58" height="18" fill="white" transform="translate(0 0.174805)"/>
</clipPath>
</defs>
</svg>
