<svg width="102" height="43" viewBox="0 0 102 43" fill="none" xmlns="http://www.w3.org/2000/svg">
<g clip-path="url(#clip0_3066_2854)">
<path fill-rule="evenodd" clip-rule="evenodd" d="M-0.0119629 30.6959C3.99795 26.6106 8.00734 22.525 12.0162 18.4391C12.199 18.2317 12.3705 18.0142 12.5301 17.7874L12.7216 17.8576C12.9483 19.049 13.1798 20.2379 13.4011 21.43C13.9377 24.3135 14.4603 27.1994 15.0126 30.0788C15.0655 30.3147 15.0682 30.5596 15.0204 30.7966C14.9726 31.0336 14.8754 31.2572 14.7357 31.4519C12.5304 34.7973 10.3379 38.1517 8.15826 41.5149C8.02252 41.7233 7.92286 41.9543 7.80124 42.1756H7.39012L-0.0119629 30.8356V30.6959ZM9.30851 0.174805C9.45444 0.731305 9.62235 1.28375 9.74162 1.84348C9.92208 2.6851 10.0861 3.53156 10.2202 4.38206C10.2737 4.62189 10.2325 4.87378 10.1057 5.08233C7.97779 7.28976 5.8256 9.47375 3.53844 11.8072C3.79423 10.4341 4.01468 9.23952 4.23595 8.05059C4.69207 5.60167 5.14898 3.15359 5.60668 0.706282C5.63963 0.526975 5.6985 0.350882 5.74479 0.174805H9.30851ZM10.7593 7.18961C11.2551 9.89376 11.7385 12.4937 12.1975 15.0969C12.2092 15.2048 12.1991 15.314 12.1676 15.4176C12.1361 15.5212 12.084 15.6169 12.0146 15.6986C8.31281 19.4991 4.60264 23.2907 0.884091 27.0734C0.820496 27.113 0.753174 27.146 0.683196 27.1719C0.962519 25.651 1.23246 24.1835 1.50315 22.7207C1.94489 20.3421 2.3835 17.9634 2.84328 15.5896C2.89208 15.3209 3.013 15.0715 3.19239 14.8699C5.60116 12.3855 8.01937 9.91154 10.447 7.44808C10.5137 7.38508 10.5859 7.33337 10.7593 7.19203V7.18961ZM48.9488 27.3617C48.9276 27.7163 48.912 27.9853 48.8931 28.3132H46.3526V13.5518H48.9018V18.7913C49.5762 18.1212 50.4248 17.6666 51.3449 17.4823C52.265 17.298 53.2172 17.3919 54.0865 17.7527C54.9559 18.1135 55.7051 18.7259 56.2437 19.5156C56.7822 20.3053 57.0871 21.2387 57.1214 22.203C57.2332 22.9899 57.1913 23.7918 56.9983 24.5618C56.8052 25.3318 56.4648 26.0544 55.9971 26.6873C55.6225 27.2135 55.1484 27.6561 54.6031 27.9884C54.0579 28.3208 53.4529 28.536 52.8247 28.6211C52.1964 28.7061 51.558 28.6593 50.9478 28.4834C50.3376 28.3075 49.7684 28.0062 49.2745 27.5976C49.1882 27.5322 49.0979 27.4748 48.9488 27.3642V27.3617ZM48.8029 23.0325C48.7793 23.4373 48.8359 23.8429 48.9694 24.2245C49.1029 24.606 49.3104 24.9557 49.5794 25.252C49.8483 25.5484 50.1731 25.7853 50.5338 25.9483C50.8946 26.1113 51.2838 26.197 51.6777 26.2003C52.071 26.1884 52.4579 26.0955 52.8157 25.9271C53.1735 25.7588 53.4949 25.5183 53.7609 25.2199C54.0269 24.9215 54.2321 24.5713 54.3645 24.1899C54.4968 23.8086 54.5535 23.4037 54.5314 22.9994C54.5504 22.5985 54.4899 22.1979 54.3535 21.8219C54.2172 21.4459 54.0078 21.1024 53.7381 20.8126C53.4685 20.5227 53.1442 20.2925 52.7852 20.1359C52.4262 19.9793 52.04 19.8997 51.6502 19.902C51.2603 19.9042 50.8749 19.9883 50.5177 20.149C50.1604 20.3097 49.8387 20.5437 49.5722 20.8367C49.3058 21.1297 49.1001 21.4755 48.9678 21.853C48.8356 22.2305 48.7795 22.6319 48.8029 23.0325ZM90.2628 28.3277H87.7402C87.7175 28.016 87.6978 27.7462 87.6751 27.4255C87.5838 27.452 87.4952 27.4877 87.4107 27.5321C84.5735 29.6321 81.1337 28.6363 79.8517 25.3159C79.1126 23.4049 79.3268 20.4099 81.1353 18.7049C81.9227 17.9454 82.9396 17.4874 84.0159 17.4075C85.0921 17.3277 86.1624 17.6309 87.0474 18.2663C87.2287 18.3996 87.4052 18.5369 87.6625 18.7331C87.6908 18.3455 87.712 18.0385 87.7371 17.6977H90.2628V28.3277ZM85.0058 19.8986C84.6183 19.8864 84.2325 19.9563 83.8722 20.1039C83.512 20.2514 83.185 20.4736 82.9116 20.7566C82.6382 21.0396 82.4241 21.3774 82.2827 21.749C82.1413 22.1206 82.0755 22.5181 82.0894 22.917C82.0546 23.3266 82.1012 23.7393 82.2267 24.1297C82.3522 24.5201 82.5538 24.88 82.8191 25.1874C83.0844 25.4948 83.4079 25.7432 83.7697 25.9173C84.1316 26.0915 84.5242 26.1878 84.9235 26.2003C85.3116 26.2005 85.6958 26.1199 86.0529 25.9632C86.41 25.8065 86.7325 25.577 87.0011 25.2886C87.2698 25.0002 87.4789 24.6588 87.6159 24.2849C87.7528 23.911 87.8149 23.5125 87.7983 23.1133C87.8384 22.7096 87.7962 22.3017 87.6744 21.9157C87.5527 21.5298 87.3541 21.1742 87.0913 20.8718C86.8285 20.5693 86.5073 20.3266 86.1482 20.1592C85.7891 19.9918 85.4 19.9033 85.0058 19.8995V19.8986ZM33.3782 23.1294C33.3488 21.6777 33.8665 20.2706 34.8226 19.2031C35.7788 18.1356 37.0992 17.4904 38.5072 17.4029C41.7696 17.3294 44.3227 19.6709 44.3918 22.7991C44.4255 23.551 44.3135 24.3024 44.0622 25.0094C43.8109 25.7163 43.4254 26.3646 42.9281 26.9166C42.4309 27.4686 41.8319 27.9131 41.166 28.2243C40.5001 28.5354 39.7807 28.707 39.0497 28.729C38.3188 28.751 37.5909 28.6229 36.9085 28.3523C36.2261 28.0817 35.6029 27.6739 35.0752 27.1528C34.5475 26.6316 34.1259 26.0076 33.8349 25.3169C33.544 24.6263 33.3895 23.883 33.3805 23.1302L33.3782 23.1294ZM41.6872 23.0648C41.7226 22.6617 41.675 22.2554 41.5475 21.8726C41.4199 21.4897 41.2152 21.1389 40.9469 20.843C40.6786 20.5471 40.3527 20.3129 39.9904 20.1556C39.6281 19.9983 39.2377 19.9214 38.8446 19.9301C38.2396 19.8922 37.6375 20.0419 37.1161 20.3599C36.5947 20.6779 36.1779 21.1496 35.9196 21.7141C35.6614 22.2785 35.5735 22.9097 35.6674 23.5261C35.7614 24.1424 36.0327 24.7156 36.4464 25.1716C36.8601 25.6275 37.3971 25.9452 37.9881 26.0837C38.5791 26.2221 39.1968 26.1748 39.7614 25.948C40.326 25.7213 40.8116 25.3254 41.1553 24.8115C41.499 24.2977 41.6851 23.6895 41.6896 23.0656L41.6872 23.0648ZM101.981 28.3277H99.3918C99.3918 28.058 99.3918 27.81 99.3918 27.5645C99.3784 25.6309 99.3918 23.6948 99.34 21.7628C99.3704 21.3607 99.2671 20.9599 99.0469 20.6262C98.8268 20.2926 98.5029 20.046 98.1285 19.9269C97.7057 19.807 97.2559 19.8374 96.8519 20.0133C96.4479 20.1892 96.1135 20.5003 95.9026 20.8962C95.6604 21.3157 95.5005 21.7799 95.4318 22.2628C95.3641 22.9807 95.3392 23.7022 95.3573 24.4233C95.3486 25.7011 95.3573 26.9789 95.3573 28.3148H92.7743V17.7122H95.3306C95.3494 17.999 95.3667 18.2711 95.3926 18.6685L96.0901 18.1839C96.5712 17.8234 97.124 17.5774 97.7087 17.4637C98.2934 17.35 98.8953 17.3714 99.471 17.5264C100.151 17.6544 100.769 18.0173 101.222 18.5553C101.675 19.0934 101.937 19.7743 101.963 20.4858C102.041 23.0656 101.983 25.6518 101.983 28.3285L101.981 28.3277ZM77.7827 19.8551C77.5041 20.0166 77.2758 20.1248 77.0718 20.2718C76.7402 20.6026 76.2998 20.7927 75.8382 20.8044C75.3766 20.8161 74.9276 20.6484 74.5807 20.3348C74.0458 19.979 73.4171 19.8022 72.7808 19.8286C72.1444 19.8551 71.5316 20.0835 71.0263 20.4826C70.5251 20.8148 70.134 21.2962 69.905 21.8628C69.6759 22.4293 69.6199 23.0543 69.7443 23.6544C69.812 24.0726 69.9628 24.472 70.1872 24.8275C70.4117 25.183 70.7049 25.4869 71.0487 25.7205C71.3924 25.954 71.7792 26.1121 72.185 26.1848C72.5907 26.2575 73.0067 26.2432 73.4069 26.1429C74.2485 25.8807 75.0652 25.5404 75.847 25.1261C76.3123 25.4491 76.9887 25.92 77.6964 26.4183C77.2109 27.0791 76.5894 27.621 75.8764 28.0052C75.1633 28.3894 74.3765 28.6062 73.5724 28.6403C70.645 28.8826 68.3752 27.6186 67.4226 25.2173C67.0883 24.3613 66.9612 23.4344 67.0523 22.5166C67.1433 21.5988 67.4497 20.7174 67.9452 19.9486C68.4407 19.1798 69.1103 18.5465 69.8963 18.1033C70.6824 17.6601 71.5614 17.4203 72.4575 17.4045C73.334 17.3151 74.2189 17.4247 75.0497 17.7256C75.8806 18.0265 76.6373 18.5113 77.2664 19.1459C77.392 19.2815 77.5109 19.4236 77.6226 19.5715C77.6832 19.6623 77.7374 19.7573 77.785 19.8558L77.7827 19.8551ZM65.4642 19.1281L63.8393 20.7572C63.6102 20.5543 63.3629 20.3743 63.1009 20.2193C62.7701 20.021 62.3999 19.9023 62.0182 19.872C61.9353 19.8414 61.847 19.8287 61.7591 19.8348C61.6712 19.841 61.5854 19.8658 61.5073 19.9077C61.4291 19.9496 61.3602 20.0077 61.3049 20.0784C61.2497 20.149 61.2092 20.2307 61.1861 20.3182C61.1629 20.4057 61.1577 20.4972 61.1706 20.587C61.1835 20.6767 61.2143 20.7627 61.261 20.8396C61.3078 20.9165 61.3695 20.9827 61.4423 21.0338C61.5151 21.085 61.5973 21.12 61.6839 21.1368C62.4175 21.6045 63.2241 21.951 63.964 22.4073C64.6246 22.7415 65.1509 23.303 65.4518 23.9944C65.7527 24.6859 65.8093 25.4639 65.6117 26.1938C65.4031 26.8806 64.9923 27.4837 64.4363 27.9198C63.8803 28.3559 63.2064 28.6034 62.5078 28.6282C61.706 28.7596 60.8845 28.6596 60.1345 28.3395C59.3846 28.0194 58.7354 27.4917 58.2591 26.8149C58.7722 26.2422 59.2908 25.6615 59.8393 25.0501C60.0593 25.2617 60.2969 25.453 60.5494 25.6219C60.9585 25.8699 61.3953 26.0658 61.8503 26.2051C62.0912 26.296 62.3565 26.2909 62.594 26.1908C62.8315 26.0907 63.0241 25.9027 63.1339 25.6639C63.1705 25.5455 63.1836 25.4208 63.1724 25.297C63.1613 25.1733 63.1261 25.0531 63.0691 24.9436C63.012 24.8341 62.9342 24.7374 62.8402 24.6595C62.7462 24.5815 62.638 24.5237 62.5219 24.4896C61.7977 24.0502 61.0233 23.6908 60.314 23.228C59.8921 22.9925 59.526 22.6639 59.2421 22.2657C58.9582 21.8674 58.7634 21.4093 58.6718 20.9244C58.5713 20.2232 58.7154 19.508 59.0785 18.9057C59.4416 18.3035 60.0003 17.8532 60.6553 17.6347C61.5069 17.3217 62.4335 17.2979 63.2992 17.5667C64.165 17.8354 64.9243 18.3827 65.4658 19.1281H65.4642ZM23.6905 26.6396C24.3566 26.0008 24.9694 25.4144 25.5893 24.8215C25.98 25.1794 26.3948 25.5084 26.8305 25.8061C27.7148 26.3271 28.2703 26.0306 28.4108 25.0121C28.4572 24.6661 28.4805 24.3172 28.4806 23.9678C28.4858 20.8889 28.4858 17.8094 28.4806 14.7294V13.9403H31.1059C31.1409 13.9786 31.1676 14.024 31.1844 14.0736C31.164 17.7809 31.1695 21.4882 31.1059 25.1947C31.0526 28.5062 28.3307 29.2429 26.1063 28.4877C25.1378 28.1412 24.296 27.4966 23.6952 26.6413L23.6905 26.6396Z" fill="#4A7E98"/>
</g>
<defs>
<clipPath id="clip0_3066_2854">
<rect width="102" height="42" fill="white" transform="translate(0 0.174805)"/>
</clipPath>
</defs>
</svg>
