<svg width="38" height="38" viewBox="0 0 38 38" fill="none" xmlns="http://www.w3.org/2000/svg">
<path d="M12.5714 26.5224V30.0319C12.5714 30.0319 12.2906 36.9995 19 36.9995C25.7094 36.9995 25.4287 30.0319 25.4287 30.0319V26.5224" stroke="#00C0F2" stroke-width="2" stroke-miterlimit="10" stroke-linecap="round" stroke-linejoin="round"/>
<path d="M25.4286 30.0319L35.6364 34.375C36.0408 34.547 36.3856 34.8341 36.628 35.2006C36.8704 35.5671 36.9997 35.9968 36.9999 36.4362L37 36.9998H1L1.00007 36.4363C1.00016 35.9969 1.12946 35.5671 1.37189 35.2006C1.61431 34.8341 1.95916 34.5469 2.36352 34.3749L12.5713 30.0319" stroke="#00C0F2" stroke-width="2" stroke-miterlimit="10" stroke-linecap="round" stroke-linejoin="round"/>
<path d="M19 29.2943C14.1408 29.2943 10.6314 25.7163 10.6314 21.3026V12.1025C12.3527 3.86285 16.6016 8.394 19 8.394C21.3984 8.394 25.4286 3.86285 27.3686 12.1025V21.3026C27.3686 25.7163 23.8592 29.2943 19 29.2943Z" stroke="#00C0F2" stroke-width="2" stroke-miterlimit="10" stroke-linecap="round" stroke-linejoin="round"/>
<path d="M10.6314 21.402H7.64386C6.40642 21.402 5.4032 20.3988 5.4032 19.1613V14.3431C5.4032 13.1057 6.40642 12.1025 7.64386 12.1025H10.6314V21.402Z" stroke="#00C0F2" stroke-width="2" stroke-miterlimit="10" stroke-linecap="round" stroke-linejoin="round"/>
<path d="M30.3561 21.402H27.3686V12.1025H30.3561C31.5937 12.1025 32.5968 13.1057 32.5968 14.3431V19.1613C32.5968 20.3988 31.5937 21.402 30.3561 21.402Z" stroke="#00C0F2" stroke-width="2" stroke-miterlimit="10" stroke-linecap="round" stroke-linejoin="round"/>
<path d="M27.3686 21.4019L24.7387 23.1556C23.8797 23.7284 22.8705 24.034 21.8381 24.0341H19.9433" stroke="#00C0F2" stroke-width="2" stroke-miterlimit="10" stroke-linecap="round" stroke-linejoin="round"/>
<path d="M29.715 12.1025V11.715C29.715 5.79731 27.2158 1.00005 19 1.00005C10.7843 1.00005 8.2851 5.79731 8.2851 11.715V12.1025" stroke="#00C0F2" stroke-width="2" stroke-miterlimit="10" stroke-linecap="round" stroke-linejoin="round"/>
</svg>
