<svg width="57" height="35" viewBox="0 0 57 35" fill="none" xmlns="http://www.w3.org/2000/svg">
<g clip-path="url(#clip0_3066_2848)">
<path fill-rule="evenodd" clip-rule="evenodd" d="M42.2838 5.92264C44.0437 5.5025 44.3968 5.75185 44.8124 7.27132C45.2082 8.73332 45.7275 10.1621 46.2025 11.6015C47.0713 14.2297 47.9447 16.8566 48.8229 19.4822C49.0707 20.2829 49.4092 21.0512 49.8315 21.7715C50.1482 20.8867 50.4886 20.0068 50.7815 19.1139C51.4022 17.2503 52.011 15.3809 52.6079 13.5055C53.1565 11.7812 53.6743 10.0496 54.2221 8.32453C54.4309 7.60791 54.6823 6.90499 54.975 6.21974C55.3178 5.46931 56.0532 5.76479 56.6153 5.81498C57.2407 5.86679 56.951 6.42377 56.8639 6.70549C56.3422 8.37715 55.7556 10.0302 55.2069 11.6921C53.9585 15.4588 52.7346 19.2361 51.4679 22.9987C50.6691 25.3698 49.9638 27.7887 48.9346 30.0643C48.398 31.2599 47.5425 32.2764 46.4663 32.9971C45.3901 33.7178 44.1369 34.1135 42.8506 34.1386C42.439 34.1726 41.9093 34.2609 41.9006 33.5995C41.8959 33.0733 41.869 32.5843 42.6986 32.5317C45.5201 32.3487 46.9903 30.5282 47.9141 28.1133C48.1421 27.5167 48.3606 26.9128 48.5633 26.3073C48.8053 25.6381 48.7869 24.8995 48.5118 24.2438C47.622 21.9391 46.8873 19.5753 46.0925 17.2349C45.5098 15.5212 44.9224 13.8099 44.3445 12.0945C43.6668 10.0585 42.9876 8.02012 42.2838 5.92264ZM21.1463 17.337C19.7625 17.1613 18.3754 16.9994 16.9956 16.8075C16.1548 16.6934 16.0282 16.8075 16.1723 17.6292C16.2606 18.5125 16.5224 19.3684 16.9421 20.1457C17.3618 20.923 17.9306 21.6057 18.6145 22.1528C19.3592 22.7752 20.2634 23.1653 21.2191 23.2764C23.1478 23.5466 25.1089 23.1333 26.7758 22.1051C26.9225 22.0716 27.0747 22.0733 27.2206 22.1101C27.3665 22.1469 27.502 22.2177 27.6166 22.3171C27.8778 22.56 28.2555 22.9469 27.6958 23.295C27.0671 23.7398 26.4001 24.1251 25.7031 24.4462C22.0876 25.8596 17.6416 24.9959 15.5817 21.4769C14.7631 20.0486 14.2293 18.4687 14.0109 16.8283C13.7925 15.188 13.894 13.5197 14.3095 11.9196C14.6933 9.98954 15.666 8.2337 17.0874 6.90461C17.9915 6.0855 19.108 5.55136 20.3024 5.36654C23.2957 4.85249 26.7822 5.58184 28.5405 8.53013C29.7644 10.5847 29.6203 13.7402 28.0417 15.3925C27.5743 15.8675 27.0117 16.2332 26.3927 16.4643C24.7108 17.0774 22.9339 17.3731 21.1487 17.337H21.1463ZM20.4338 16.0093C21.4533 16.0256 22.4727 15.9742 23.4857 15.8555C25.9398 15.3844 27.7646 14.2365 27.3648 11.2857C27.3181 10.9433 27.273 10.6001 27.216 10.2585C27.1117 9.74714 26.9055 9.26327 26.6104 8.83696C26.3153 8.41064 25.9374 8.05104 25.5005 7.78054C24.6866 7.30837 23.7834 7.0194 22.8515 6.93297C22.0436 6.72726 21.198 6.73398 20.3933 6.95253C19.5886 7.17108 18.8512 7.59435 18.2496 8.18288C16.3789 9.93631 15.9316 12.2305 15.9609 14.6769C15.9458 14.7983 15.9566 14.9216 15.9923 15.0384C16.0281 15.1552 16.0881 15.2628 16.1682 15.3537C16.2483 15.4447 16.3466 15.5169 16.4564 15.5655C16.5663 15.6141 16.6851 15.6379 16.8048 15.6353C18.115 15.7722 19.4252 15.9041 20.4322 16.0077L20.4338 16.0093ZM2.49938 23.1469C3.11213 23.1801 3.55546 23.2278 4.00354 23.2278C6.48067 23.2278 8.95858 23.2465 11.4357 23.2133C11.5506 23.1858 11.6705 23.189 11.7838 23.2227C11.8972 23.2563 12.0001 23.3192 12.0828 23.4054C12.1654 23.4915 12.225 23.598 12.2557 23.7145C12.2865 23.831 12.2873 23.9536 12.2583 24.0706C12.2809 24.1842 12.2751 24.3019 12.2416 24.4126C12.208 24.5234 12.1477 24.6237 12.0662 24.7044C11.9847 24.7851 11.8847 24.8434 11.7753 24.8741C11.666 24.9048 11.5508 24.9069 11.4404 24.8801C7.94286 24.859 4.44451 24.8591 0.946923 24.8396C0.0190901 24.8348 -0.193881 24.6194 0.167119 23.7873C0.685903 22.6797 1.26391 21.6023 1.8985 20.5597C3.86817 17.11 5.84734 13.6661 7.836 10.2277C8.22234 9.55826 8.66488 8.91869 9.0235 8.23545C9.41221 7.49554 9.28315 7.35878 8.39649 7.35878C6.00249 7.36444 3.60771 7.33854 1.21292 7.35878C1.09235 7.39411 0.964702 7.39569 0.843326 7.36337C0.721951 7.33105 0.611299 7.266 0.522896 7.17502C0.434492 7.08405 0.371585 6.97047 0.340755 6.84616C0.309926 6.72184 0.312293 6.59133 0.347617 6.46827C0.3682 5.82065 0.701486 5.79392 1.17253 5.79635C3.51428 5.79959 5.85629 5.79959 8.19857 5.79635C9.22061 5.79635 10.2443 5.81016 11.2655 5.77535C11.959 5.75188 12.1466 6.04573 11.9416 6.65692C11.8748 6.85887 11.7886 7.05352 11.6843 7.23812C9.78429 10.5426 7.88428 13.8452 5.98428 17.1459C4.85932 19.0774 3.73516 21.0098 2.49779 23.1453L2.49938 23.1469ZM35.4097 13.1606C35.4097 14.5441 35.31 15.9397 35.4398 17.3126C35.5362 18.5047 35.7977 19.6767 36.2165 20.7936C36.508 21.4345 36.9495 21.9921 37.5017 22.4172C38.054 22.8423 38.7002 23.1219 39.3831 23.2311C39.6539 23.2626 39.9036 23.3959 40.0837 23.6051C40.122 24.0486 40.0883 24.4956 39.984 24.9279C39.8327 25.0101 39.6589 25.0385 39.49 25.0088C36.6732 24.4575 34.5682 23.0384 33.8779 20.1404C33.5644 18.7946 33.3893 17.419 33.3554 16.0361C33.2833 13.4804 33.338 10.9166 33.3791 8.36016C33.391 7.61297 33.1852 7.25353 32.3642 7.38872C31.9883 7.41305 31.6111 7.40707 31.2361 7.37088C30.3375 7.37088 30.1832 7.23167 30.3082 6.35171C30.3479 6.23236 30.4156 6.12482 30.5055 6.03856C30.5954 5.9523 30.7046 5.88996 30.8236 5.85708C31.3867 5.82024 31.9515 5.82024 32.5146 5.85708C32.6322 5.88127 32.7538 5.87524 32.8685 5.83954C32.9832 5.80383 33.0874 5.73958 33.1719 5.65252C33.2563 5.56546 33.3183 5.45834 33.3523 5.34075C33.3862 5.22316 33.3911 5.09877 33.3665 4.97878C33.3475 3.67463 33.4163 2.36479 33.3538 1.06308C33.3134 0.210651 33.786 0.208242 34.4075 0.172623C34.5329 0.129172 34.6675 0.121119 34.797 0.149302C34.9265 0.177485 35.0462 0.240856 35.1435 0.332759C35.2407 0.424662 35.3119 0.541696 35.3496 0.67151C35.3873 0.801324 35.39 0.939123 35.3575 1.07039C35.3179 2.26687 35.3519 3.4682 35.344 4.6671C35.3369 5.68791 35.4462 5.82147 36.4753 5.83361C37.4166 5.84494 38.3619 5.86841 39.3 5.80446C40.2017 5.74455 40.0568 6.37841 40.0798 6.86493C40.1067 7.41622 39.7425 7.45346 39.2604 7.43161C38.2146 7.37737 37.1641 7.41785 36.1159 7.39761C36.0176 7.37788 35.916 7.3833 35.8201 7.41342C35.7243 7.44355 35.6373 7.49742 35.5668 7.57025C35.4963 7.64308 35.4445 7.73262 35.416 7.83088C35.3875 7.92915 35.3831 8.03309 35.4034 8.13347C35.4137 9.81161 35.4074 11.4906 35.4074 13.1695H35.4026L35.4097 13.1606Z" fill="#4A7E98"/>
</g>
<defs>
<clipPath id="clip0_3066_2848">
<rect width="57" height="34" fill="white" transform="translate(0 0.174805)"/>
</clipPath>
</defs>
</svg>
